<svg width="38" height="38" viewBox="0 0 38 38" fill="none" xmlns="http://www.w3.org/2000/svg">
<path d="M11.6203 15.968L18.9999 8.58857L26.3833 15.9718L30.6773 11.6778L18.9999 0L7.32653 11.674L11.6203 15.968ZM0.000244141 18.9994L4.29438 14.7053L8.58823 18.9991L4.29413 23.2932L0.000244141 18.9994ZM11.6203 22.032L18.9999 29.4114L26.3832 22.0284L30.6794 26.3201L30.6773 26.3224L18.9999 38L7.32615 26.3264L7.32007 26.3203L11.6203 22.032ZM29.4124 19.0018L33.7065 14.7077L38.0004 19.0015L33.7062 23.2956L29.4124 19.0018Z" fill="#FFC300"/>
<path d="M23.3551 18.9979H23.357L18.9997 14.6406L15.7796 17.8607L15.4095 18.2309L14.6465 18.9941L14.6404 19L14.6465 19.0063L18.9997 23.3597L23.357 19.0025L23.3591 19L23.3551 18.9979Z" fill="#8759F2"/>
</svg>
