<svg width="38" height="33" viewBox="0 0 38 33" fill="none" xmlns="http://www.w3.org/2000/svg">
<g clip-path="url(#clip0_2060_422)">
<path d="M10.7427 0.00208708C19.8272 -0.000695694 28.9123 -0.000695694 37.9979 0.00208708C38.0007 2.9345 38.0007 5.86641 37.9979 8.79781C28.9132 8.80059 19.8281 8.80059 10.7427 8.79781C10.7398 5.8654 10.7398 2.93349 10.7427 0.00208708Z" fill="#FFC300"/>
<path d="M0.0113998 12.1071C2.9423 12.0919 5.8737 12.0919 8.80561 12.1071C8.82081 15.0339 8.82081 17.9613 8.80561 20.8891C5.87382 20.9042 2.94242 20.9045 0.0113998 20.8899C-0.00379994 17.9626 -0.00379994 15.0349 0.0113998 12.1071Z" fill="#FFC300"/>
<path d="M10.7495 12.1061C17.3066 12.0922 23.8632 12.0922 30.4194 12.1061C30.4333 15.033 30.4333 17.9603 30.4194 20.8882C23.8624 20.9019 17.3058 20.9019 10.7495 20.8882C10.7358 17.9612 10.7358 15.0339 10.7495 12.1061Z" fill="#8759F2"/>
<path d="M10.7576 24.2152C13.6836 24.1835 16.609 24.1835 19.534 24.2152C19.5644 27.1352 19.5648 30.0566 19.5353 32.9794C16.6093 33.0083 13.684 33.0078 10.7591 32.9779C10.7287 30.0582 10.7282 27.1373 10.7576 24.2152Z" fill="#8759F2"/>
</g>
<defs>
<clipPath id="clip0_2060_422">
<rect width="38" height="33" fill="white"/>
</clipPath>
</defs>
</svg>
