<svg width="37" height="37" viewBox="0 0 37 37" fill="none" xmlns="http://www.w3.org/2000/svg">
<path d="M18.5109 0C6.6728 0 0 5.73363 0 18.5C0 31.2664 6.67592 37 18.5109 37C30.3272 37 37 31.2664 37 18.5C37 5.73363 30.3272 0 18.5109 0ZM18.5016 7.83845L23.9228 15.7893L18.5016 21.2138L13.0741 15.7893L18.5016 7.83845ZM18.5078 32.6967C7.53421 32.6967 4.72838 26.1573 4.72838 17.8723H10.5335L18.5016 25.8856L26.4727 17.8723H32.2779C32.2716 26.1573 29.4627 32.6967 18.5078 32.6967Z" fill="#8759F2"/>
<path d="M18.5078 32.6967C7.53421 32.6967 4.72838 26.1573 4.72838 17.8723H10.5335L18.5016 25.8856L26.4727 17.8723H32.2779C32.2716 26.1573 29.4627 32.6967 18.5078 32.6967Z" fill="#FFC300"/>
<path d="M18.5016 7.83845L23.9228 15.7893L18.5016 21.2138L13.0741 15.7893L18.5016 7.83845Z" fill="white"/>
</svg>
