<svg width="38" height="37" viewBox="0 0 38 37" fill="none" xmlns="http://www.w3.org/2000/svg">
<path d="M19.1439 0C7.30573 0 0.632935 5.73363 0.632935 18.5C0.632935 31.2664 7.30885 37 19.1439 37C30.9601 37 37.6329 31.2664 37.6329 18.5C37.6329 5.73363 30.9601 0 19.1439 0ZM19.1345 7.83845L24.5557 15.7893L19.1345 21.2138L13.707 15.7893L19.1345 7.83845ZM19.1407 32.6967C8.16714 32.6967 5.36132 26.1573 5.36132 17.8723H11.1665L19.1345 25.8856L27.1056 17.8723H32.9108C32.9045 26.1573 30.0956 32.6967 19.1407 32.6967Z" fill="white"/>
<path d="M19.1407 32.6967C8.16714 32.6967 5.36132 26.1573 5.36132 17.8723H11.1665L19.1345 25.8856L27.1056 17.8723H32.9108C32.9045 26.1573 30.0956 32.6967 19.1407 32.6967Z" fill="#8759F2"/>
<path d="M19.1345 7.83845L24.5557 15.7893L19.1345 21.2138L13.707 15.7893L19.1345 7.83845Z" fill="#8759F2"/>
</svg>
