<svg width="37" height="36" viewBox="0 0 37 36" fill="none" xmlns="http://www.w3.org/2000/svg">
<path d="M16.2747 2.14126C19.5377 1.27942 25.2998 0.631136 29.9382 2.70692C36.2317 5.52125 37.2359 10.9211 35.6584 19.0031C35.7436 17.6951 35.7576 16.1709 35.5224 15.0739C35.3012 13.8638 34.85 12.8024 34.0911 11.9761C33.1759 10.9707 31.8856 10.3554 30.4048 10.0275C30.3259 10.0097 30.2446 9.98807 30.1658 9.9779C26.6256 9.2508 22.0088 10.0593 18.3975 11.0063L16.2747 2.14126Z" fill="#FF3E80"/>
<path d="M20.0438 32.8755C16.7808 33.7373 11.0187 34.3856 6.38023 32.3085C0.0867646 29.4955 -0.921257 24.0956 0.663867 16.0137C0.577428 17.3204 0.563446 18.8445 0.798608 19.9415C1.01979 21.1529 1.47232 22.2143 2.23119 23.0406C3.14642 24.0448 4.43537 24.6613 5.91753 24.9893C5.99634 25.0071 6.07769 25.0287 6.15651 25.0388C9.69666 25.7659 14.3135 24.9575 17.9248 24.0092L20.0438 32.8755Z" fill="#FF3E80"/>
<path d="M20.2279 32.7899C21.0275 31.3255 27.4417 19.4771 30.1111 11.3672C33.0347 12.1159 34.4508 14.3455 34.5779 18.3827C34.6745 21.4817 34.0377 25.1198 32.914 27.8731C32.9008 27.9001 32.8898 27.9282 32.8809 27.957C32.8682 27.9875 32.8568 28.0205 32.8428 28.0485C32.8225 28.1019 32.8123 28.1286 32.8059 28.1527C31.8499 30.499 30.7648 32.7906 29.5556 35.0169L20.2279 32.7899Z" fill="#8759F2"/>
<path d="M6.20462 23.6497C3.28098 22.901 1.86364 20.6714 1.73653 16.633C1.63992 13.5339 2.27804 9.8959 3.40046 7.14386C3.41366 7.1168 3.42471 7.08875 3.43351 7.05997C3.44368 7.03327 3.45639 6.99895 3.47165 6.96717C3.48597 6.93361 3.49828 6.89923 3.50851 6.86421C4.46441 4.51789 5.54952 2.22632 6.75884 0L16.0865 2.22833C15.287 3.69142 8.87276 15.5373 6.20462 23.6497Z" fill="#8759F2"/>
</svg>
