<svg width="36" height="27" viewBox="0 0 36 27" fill="none" xmlns="http://www.w3.org/2000/svg">
<path fill-rule="evenodd" clip-rule="evenodd" d="M34.1462 0.0326874C34.8358 -0.141483 35.5 0.402373 35.5 1.14113V24.7224C35.5 25.9803 34.5206 27 33.3125 27H29.1501C27.942 27 26.9626 25.9803 26.9626 24.7224L26.9626 1.14113C26.9626 0.402373 27.6268 -0.141483 28.3164 0.0326875L30.7156 0.638694C31.0545 0.724296 31.4081 0.724296 31.747 0.638694L34.1462 0.0326874Z" fill="#8759F2"/>
<path fill-rule="evenodd" clip-rule="evenodd" d="M6.8499 18.5466C8.05802 18.5466 9.0374 19.5663 9.0374 20.8242V24.7224C9.0374 25.9803 8.05802 27 6.8499 27H2.6875C1.47938 27 0.500001 25.9803 0.500001 24.7225L0.5 20.8242C0.5 19.5663 1.47938 18.5466 2.6875 18.5466H6.8499Z" fill="#FFC300"/>
<path fill-rule="evenodd" clip-rule="evenodd" d="M5.95942 1.43199C6.2735 0.71347 7.17679 0.536409 7.72033 1.08682L27.4945 21.1115L22.9137 25.5464C22.0602 26.3727 20.7344 26.3572 19.8989 25.5112L1.74309 7.1254C1.16605 6.54105 1.37109 5.53 2.12577 5.23842L3.88344 4.55932C4.42946 4.34835 4.87215 3.91939 5.1134 3.36747L5.95942 1.43199Z" fill="#FFC300"/>
</svg>
