<svg width="42" height="41" viewBox="0 0 42 41" fill="none" xmlns="http://www.w3.org/2000/svg">
<path d="M26.6863 13.1016C21.5916 13.1016 16.497 13.1016 11.4023 13.1016C11.1597 13.1016 10.6745 13.1016 10.4319 13.3442C10.4319 18.1962 10.4319 23.0483 10.4319 27.9004C11.4023 27.9004 12.3727 27.9004 13.3431 27.9004C13.3431 26.6874 13.3431 25.4743 13.3431 24.2613C13.3431 23.2909 13.5857 23.0483 14.5561 23.0483C18.6804 23.0483 22.8047 23.0483 27.1715 23.0483C29.355 23.0483 30.8106 22.3205 31.5384 20.1371C32.7514 16.2554 30.568 13.1016 26.6863 13.1016ZM25.4733 20.6223C23.7751 20.6223 22.3195 20.6223 20.6212 20.6223C19.6508 20.6223 18.4378 20.6223 17.4674 20.6223C16.497 20.6223 15.284 20.6223 14.3135 20.6223C13.5857 20.6223 13.1005 20.3797 13.3431 19.6519C13.3431 18.6814 13.3431 17.711 13.3431 16.7406C13.3431 16.0128 13.5857 15.7702 14.3135 15.7702C18.4378 15.7702 22.8047 15.7702 26.9289 15.7702C28.1419 15.7702 28.6271 16.2554 28.6271 17.2258C28.8698 20.3797 28.8698 20.6223 25.4733 20.6223Z" fill="#8759F2"/>
<path opacity="0.4" d="M20.6213 41C9.21893 41 0 31.7811 0 20.6213C0 9.46154 9.21893 0 20.6213 0C32.0237 0 41.2426 9.21894 41.2426 20.6213C41.2426 32.0237 31.7811 41 20.6213 41ZM20.6213 2.42604C10.432 2.42604 2.42604 10.432 2.42604 20.6213C2.42604 30.568 10.432 38.8166 20.6213 38.8166C30.8106 38.8166 38.8166 30.8107 38.8166 20.6213C38.574 10.432 30.568 2.42604 20.6213 2.42604Z" fill="#8759F2"/>
</svg>
