<svg width="14" height="38" viewBox="0 0 14 38" fill="none" xmlns="http://www.w3.org/2000/svg">
<g clip-path="url(#clip0_2060_406)">
<path d="M2.56027 11.3163C1.68544 10.0058 0.867067 8.58049 0.867067 6.8682C0.867068 3.21412 3.78313 0.258304 7.36706 0.277436C10.951 0.258304 13.8671 3.21412 13.8671 6.86826C13.8671 8.58049 13.0487 10.0058 12.1739 11.3163C11.3649 12.5407 10.6876 13.4495 10.0291 14.473C9.13552 15.9366 8.49585 17.2566 8.49585 18.9498C8.49585 20.6429 9.12609 22.0873 10.0291 23.4265C10.6217 24.4501 11.3649 25.3588 12.1739 26.5832C13.0487 27.8937 13.8671 29.319 13.8671 31.0313C13.8671 34.6854 10.951 37.6412 7.36706 37.6221C3.78313 37.6412 0.867065 34.6854 0.867065 31.0313C0.867066 29.319 1.68544 27.8937 2.56027 26.5832C3.36924 25.3588 4.11236 24.4501 4.70498 23.4265C5.60802 22.0873 6.23826 20.6429 6.23826 18.9498C6.23826 17.2566 5.59861 15.9366 4.70498 14.473C4.04652 13.4495 3.36924 12.5407 2.56027 11.3163Z" fill="#8759F2"/>
</g>
<defs>
<clipPath id="clip0_2060_406">
<rect width="13" height="38" fill="white" transform="translate(0.867065)"/>
</clipPath>
</defs>
</svg>
