<svg width="15" height="15" viewBox="0 0 15 15" fill="none" xmlns="http://www.w3.org/2000/svg">
<g clip-path="url(#clip0_485_256)">
<path d="M8.03083 2.59416L9.19165 5.05583C9.27915 5.23666 9.4425 5.365 9.64083 5.39417L12.2425 5.79083C12.7267 5.86667 12.925 6.49083 12.5692 6.84667L10.685 8.76584C10.545 8.90584 10.4808 9.11582 10.5158 9.31415L10.9592 12.0208C11.0408 12.5283 10.5333 12.9133 10.0958 12.6742L7.76832 11.3967C7.59332 11.3033 7.38916 11.3033 7.21416 11.3967L4.88665 12.6742C4.44915 12.9133 3.94166 12.5283 4.02333 12.0208L4.46665 9.31415C4.50165 9.11582 4.4375 8.90584 4.2975 8.76584L2.41332 6.84667C2.06332 6.49083 2.25582 5.86083 2.73999 5.79083L5.34165 5.39417C5.53415 5.365 5.70333 5.23666 5.79083 5.05583L6.95166 2.59416C7.16749 2.13333 7.79749 2.13333 8.01333 2.59416H8.03083Z" fill="#F9C827"/>
</g>
<defs>
<clipPath id="clip0_485_256">
<rect width="14" height="14" fill="white" transform="translate(0.5 0.5)"/>
</clipPath>
</defs>
</svg>
