<svg width="783" height="352" viewBox="0 0 783 352" fill="none" xmlns="http://www.w3.org/2000/svg">
<circle cx="781" cy="276" r="1" fill="black"/>
<circle cx="623" cy="12" r="1" fill="black"/>
<circle cx="455" cy="14" r="1" fill="black"/>
<circle cx="178" cy="1" r="1" fill="black"/>
<circle cx="93" cy="49" r="1" fill="black"/>
<circle cx="741" cy="282" r="1" fill="#FFC300"/>
<circle cx="95.4473" cy="250" r="1" fill="black"/>
<circle cx="144.447" cy="158" r="1" fill="black"/>
<circle cx="172.447" cy="349" r="1" fill="black"/>
<circle cx="529.447" cy="279" r="1" fill="black"/>
<circle cx="601.447" cy="140" r="1" fill="black"/>
<circle cx="632.447" cy="260" r="1" fill="black"/>
<circle cx="781.447" cy="334" r="1" fill="black"/>
<circle cx="706.447" cy="343" r="1" fill="black"/>
<circle cx="166.447" cy="272" r="1" fill="black"/>
<circle cx="604.447" cy="342" r="1" fill="black"/>
<circle cx="1.44727" cy="351" r="1" fill="black"/>
<circle cx="85.4473" cy="334" r="1" fill="black"/>
<circle cx="25.4473" cy="208" r="1" fill="black"/>
<circle cx="695.447" cy="171" r="1" fill="black"/>
<circle cx="706.447" cy="269" r="1" fill="black"/>
<circle cx="741.447" cy="340" r="1" fill="#FFC300"/>
</svg>
