<svg width="395" height="196" viewBox="0 0 395 196" fill="none" xmlns="http://www.w3.org/2000/svg">
<g clip-path="url(#clip0_1_657)">
<mask id="mask0_1_657" style="mask-type:alpha" maskUnits="userSpaceOnUse" x="0" y="0" width="395" height="359">
<g clip-path="url(#clip1_1_657)">
<path d="M232.378 139.646L232.616 156.331L232.062 158.071L230.324 161.115L229.139 161.945L227.559 162.104L225.545 163.211L224.439 164.555L223.491 168.667L222.859 170.485L222.069 171.948L220.923 173.332L218.791 174.597L197.145 182.07L190.706 180.568L189.205 180.607L187.23 181.398L186.005 182.189L185.097 182.94L183.793 183.691L182.332 184.126L181.502 184.679L181.344 185.47L181.937 192.903L181.74 194.445L180.91 197.845L180.515 200.771L180.278 201.364L180.357 203.025L181.226 206.583H181.187L174.235 208.6H172.694L168.152 207.572L167.203 206.741L167.006 204.527L166.729 203.855L166.374 203.816L163.57 205.318L163.175 205.872L162.582 206.148L159.857 208.007L158.316 208.204L156.341 207.73L156.262 208.441L156.736 209.588L157.368 210.221L158.158 210.537L159.067 210.695L160.252 211.604L160.844 213.225L160.33 214.847L159.935 217.298L158.197 221.607L158.04 223.703L158.237 225.087V225.877L157.684 226.075L156.143 226.312L155.709 225.877L152.865 223.821L150.653 221.489L149.507 218.563L149.389 216.942L149.587 216.112L149.626 214.253L147.77 208.086L147.335 205.358L147.453 204.053L148.125 203.539L148.994 203.183L148.955 202.432L148.322 201.641L147.928 200.929L148.007 200.178L148.836 199.625L149.468 198.32L149.112 195.829L148.046 193.892L145.676 192.073L144.61 191.005L142.003 188.989L141.805 187.091L141.923 185.312L141.45 184.6L141.292 183.889L140.975 183.572L140.462 183.414L140.225 182.821L140.028 181.714L139.238 181.042L138.368 181.161L137.895 181.675L137.065 181.951L134.379 182.03L133.589 182.189L131.298 183.691L130.39 183.889L129.758 183.651L128.73 183.889L127.427 183.731L126.163 182.703L124.938 181.991L124.03 182.189L123.358 182.505L122.648 182.623L121.265 182.465L117.236 184.64L117.789 182.821L118.223 182.149L117.355 181.002L115.3 180.212L113.523 180.33L112.417 179.737L111.43 177.286V177.049L111.548 176.456L111.825 175.981L112.298 175.665L113.918 175.111L114.866 174.439L115.222 171.513L116.407 170.13L119.448 169.299L119.922 168.983L119.962 168.548L120.08 167.955L122.134 163.804L122.095 162.736L122.173 161.431L122.648 160.443L124.346 159.02L127.585 157.082L136.078 154.868L137.381 154.038L138.527 153.089L139.79 152.654H140.975L141.528 151.705L143.464 146.961L143.701 145.498L143.148 145.182L142.713 144.114L143.306 139.251L143.543 138.539L144.333 137.748L146.268 136.918L150.693 136.404L152.272 136.483L159.145 134.704L163.095 136.839L165.11 137.155L170.68 136.8L172.062 137.037L180.752 139.923L181.818 140.081L230.562 138.618L231.707 138.974L232.181 139.409L232.378 139.646Z" fill="#EAEAEA" stroke="white" stroke-width="2" stroke-linecap="round" stroke-linejoin="round"/>
<path d="M248.534 44.8355L248.692 46.6542L248.534 47.4054L248.613 48.3543L248.85 49.4218L248.811 50.0544L248.416 51.715L248.455 52.9011L249.166 53.7314L250.114 54.2059L250.944 54.8385L251.339 56.42L250.193 58.0014L247.823 58.8317L247.27 58.9108L246.638 59.1876L246.006 59.7411L244.544 60.3737L243.044 63.0227L242.412 63.6158L241.582 64.3274L237.79 70.2185L236.092 73.9746L235.697 76.7817L235.025 78.5214L233.959 79.0354L226.691 78.0074L224.953 78.2051L221.358 80.261L217.922 82.9891L216.658 84.3729L213.774 85.7567L212.352 86.073L210.733 85.7963L206.743 85.8753L205.914 84.6101L203.741 82.3565L199.238 79.6284L198.527 78.4028L198.29 77.7702V77.4143L201.371 77.6911L201.687 77.8888L202.043 78.0074L204.571 77.2957L204.847 77.098L204.966 76.6631V74.0141L204.887 73.5792L204.571 73.4211L204.176 73.2629L204.254 72.8675L204.689 71.9977L204.215 71.2465L203.899 70.2976L203.425 68.1626L202.833 66.4625L202.714 66.1066L202.517 63.9321L208.086 64.4065H208.521L208.876 64.2484L209.271 63.853L209.627 63.6158L210.061 63.5762L210.535 63.6553H211.009L211.72 63.4181L215.196 61.4017L215.631 61.3226L216.894 61.5994H217.329L217.645 61.4412L218.159 60.9272L218.554 60.7295L218.791 60.4923L219.778 59.8597L220.292 59.4248L220.41 59.2271L220.449 58.8317L220.726 58.1991L220.805 57.8433V57.2107L220.687 56.8549L220.449 56.6572L220.41 56.499L220.371 55.9455L220.726 55.1548L220.805 54.6408L220.924 54.2454L221.161 53.8105L221.793 53.1383L224.874 51.0033L225.822 49.9358L225.979 49.659L226.059 49.3032L226.335 49.1846L226.849 49.066L226.967 48.8683L227.204 48.3939L227.362 48.1962L227.757 48.038L228.942 47.8403L229.219 47.7217L229.377 47.3263L229.851 47.0496L230.759 46.7333H230.996L231.431 46.3774L231.826 46.1402L233.366 44.9936L233.84 44.7564L235.144 44.7169L239.173 43.847H239.804L241.069 44.1633L241.859 44.5983L242.174 44.7169H243.202L243.557 44.8355L244.11 45.1122L244.387 45.2309H244.703L247.626 44.7169L248.455 44.7959L248.534 44.8355Z" fill="#EAEAEA" stroke="white" stroke-width="2" stroke-linecap="round" stroke-linejoin="round"/>
<path d="M198.29 77.4143V77.7701L198.527 78.4027L199.238 79.6284L203.741 82.3565L205.913 84.6101L206.743 85.8753L204.689 86.5079L202.99 87.4963L201.45 89.0383L200.739 90.4616L200.265 91.9641L199.949 94.02L199.159 94.9689L197.065 96.8272L196.591 97.5388L196.354 98.1714L195.841 98.8436L194.972 99.6343L193.51 100.425L191.97 100.9L190.943 101.058L190.271 100.702L189.205 101.058L187.901 101.809L186.953 102.086L184.899 102.283L184.583 102.441L182.766 101.176L181.858 100.939L181.186 101.334L180.12 101.493L178.579 101.176L176.249 99.9111L174.392 99.5552L172.931 98.9622L171.588 98.7645L169.731 100.267L167.085 103.469L165.663 104.063L164.043 103.944L163.056 103.588L162.424 103.232L161.713 102.362L160.528 100.148L158.434 97.8947L155.669 96.7876L152.549 96.5109L150.337 95.2061L148.994 93.6642L145.636 92.913L144.807 92.5571L144.017 91.8059L143.661 91.2919L142.358 90.7779L138.961 90.1058V89.5918L138.724 88.8801L135.406 86.3497L134.26 85.7567L128.849 81.1308L129.876 80.4587L131.14 78.205L131.574 76.1095L132.404 75.2793L133.47 74.7257L134.181 73.7373L134.379 72.9861L135.366 73.6582L135.761 73.7768L136.077 73.8954L136.67 74.5676L136.986 74.8048L140.185 76.584L143.148 78.6795L144.846 79.4307L150.534 80.5773L154.168 81.6448L157.96 82.3169L161.594 83.3844L165.386 82.8704L168.744 81.6448L172.259 80.775L175.893 80.0633L179.369 79.3516L182.845 78.3236L186.242 77.2561L192.997 75.7537L193.945 75.5956L201.963 75.1211L203.425 74.7653L204.412 73.935L204.373 74.9234L203.227 75.3188L201.766 75.4769L200.857 75.7932L200.581 75.9119L200.304 75.8723L199.751 75.7142L199.435 75.7537L198.882 75.9514L198.566 76.0305L197.342 75.8723H196.315L196.473 76.1491L196.749 76.2677L197.421 76.2282L196.868 76.3863L197.342 77.0584L198.171 77.4143H198.29Z" fill="#EAEAEA" stroke="white" stroke-width="2" stroke-linecap="round" stroke-linejoin="round"/>
<path d="M258.844 81.8425L259.239 81.7239L259.91 81.7634L260.74 82.2774L261.214 84.2543L260.7 86.6265L259.871 88.208L259.555 90.9756L259.95 95.7597L260.582 98.804L261.174 100.227L265.993 104.181L267.336 105.723L267.02 107.502L263.465 113.631L262.596 115.647L262.004 116.121L257.659 117.742L255.368 119.126L252.721 121.578L249.443 125.65L242.096 138.025L239.844 139.211L234.63 139.093L232.734 139.449L232.379 139.607V139.646L232.181 139.409L231.707 138.974L230.562 138.618L181.819 140.081L180.752 139.923L172.062 137.037L170.68 136.8L165.11 137.155L163.096 136.839L159.146 134.704L159.817 133.716L160.726 131.581L161.279 129.406L161.318 127.39L161.042 126.401L161.121 125.334L161.753 123.317L162.819 121.696L163.056 120.154L162.148 118.494L159.817 115.41L159.659 114.342L159.817 113.196L160.173 111.693L160.449 109.361L160.805 109.005L161.2 109.202L161.437 109.44L161.871 109.598L163.096 109.637L164.202 110.626L167.954 112.919L169.416 113.433L170.996 113.472L175.578 114.817L177.237 114.896L179.567 114.105L181.582 113.038L184.821 110.072L185.492 107.779L185.216 105.249L184.584 102.441L184.9 102.283L186.954 102.086L187.902 101.809L189.205 101.058L190.272 100.702L190.943 101.058L191.97 100.9L193.511 100.425L194.972 99.6343L195.841 98.8436L196.355 98.1715L196.592 97.5389L197.066 96.8272L199.159 94.9689L199.949 94.02L200.265 91.9641L200.739 90.4617L201.45 89.0383L202.991 87.4963L204.689 86.5079L206.743 85.8753L210.733 85.7962L212.352 86.073L213.774 85.7567L216.658 84.3729L217.922 82.9891L221.358 80.261L224.953 78.205L226.691 78.0074L233.959 79.0353L235.025 78.5213L235.697 76.7817L236.092 73.9745L237.79 70.2185L241.582 64.3274L242.412 63.6157L245.532 67.7672L246.954 68.7951L247.784 68.637L248.771 69.0719L248.534 69.665L247.349 70.0208L246.836 70.4162L246.717 70.8115L246.954 71.286L247.073 71.9581L246.954 73.6978L246.599 75.2397L246.52 75.7537L246.875 76.5445L249.324 79.2726L251.615 81.289L252.761 81.6448L254.736 82.0006L255.723 82.396L258.844 81.8425Z" fill="#EAEAEA" stroke="white" stroke-width="2" stroke-linecap="round" stroke-linejoin="round"/>
<path d="M184.583 102.441L185.215 105.249L185.492 107.779L184.82 110.072L181.581 113.037L179.567 114.105L177.236 114.896L175.577 114.817L170.995 113.472L169.415 113.433L167.954 112.919L164.201 110.626L163.095 109.637L161.871 109.598L161.436 109.44L161.199 109.202L160.804 109.005L160.449 109.36L160.172 111.693L159.817 113.196L159.659 114.342L159.817 115.41L162.147 118.494L163.056 120.154L162.819 121.696L161.752 123.317L161.12 125.334L161.041 126.401L149.428 119.443L144.491 117.94L138.645 117.901V117.821L140.422 112.089L140.383 110.349L139.869 109.321L138.921 108.135L139.474 106.87L140.778 106.079L141.844 104.735L142.437 103.232L144.254 103.114L144.491 101.888L144.57 100.267L145.794 98.8435L147.453 98.2504L149.112 98.4481L150.258 97.7364V96.3131L150.337 95.2061L152.549 96.5108L155.669 96.7876L158.434 97.8946L160.528 100.148L161.713 102.362L162.424 103.232L163.056 103.588L164.043 103.944L165.663 104.062L167.085 103.469L169.731 100.267L171.588 98.7644L172.931 98.9621L174.392 99.5552L176.249 99.911L178.579 101.176L180.12 101.493L181.186 101.334L181.858 100.939L182.766 101.176L184.583 102.441Z" fill="#EAEAEA" stroke="white" stroke-width="2" stroke-linecap="round" stroke-linejoin="round"/>
<path d="M288.982 178.749L289.101 180.607L288.943 181.358L288.39 182.268L288.034 183.138L288.192 183.691L288.469 184.245L289.101 184.917V185.668L289.733 187.012L290.562 188.356L290.523 189.701L290.049 191.045L289.851 192.231L289.535 193.338L286.81 197.015L286.059 199.111L283.966 202.392L282.899 205.12L282.583 205.595L260.7 196.145L258.093 195.71L257.659 196.383L256.711 197.371L252.445 199.783L251.023 201.325L240.16 207.058L239.252 209.035L239.015 216.547L238.699 218.207L235.223 219.749L231.391 220.263L229.693 219.947L227.086 219.828L215.631 221.884L213.814 223.901L212.866 225.68L212.431 227.419L212.471 228.606L213.616 230.78L214.841 233.943L215.315 236.315L215.986 237.106L216.618 237.581L216.381 245.251L216.579 246.595L216.855 247.505L216.895 248.177L216.263 248.651L214.169 248.888L213.972 249.086L213.063 249.481L208.916 247.386L205.756 244.974L205.163 243.551L204.452 238.371L203.544 236.79L200.305 232.797L196.908 226.708L192.128 214.609L189.521 211.407L186.44 208.56L181.226 206.583L180.357 203.025L180.278 201.364L180.515 200.771L180.91 197.845L181.74 194.445L181.937 192.903L181.345 185.47L181.503 184.679L182.332 184.126L183.794 183.691L185.097 182.94L186.006 182.189L187.23 181.398L189.205 180.607L190.706 180.568L197.145 182.07L218.791 174.597L220.924 173.332L222.069 171.948L222.859 170.486L223.491 168.667L224.439 164.555L225.545 163.211L227.56 162.104L229.14 161.945L230.325 161.115L232.063 158.071L232.616 156.331L232.379 139.646V139.607L232.734 139.449L234.63 139.093L239.844 139.211L242.096 138.025L249.443 125.65L257.777 123.436L265.914 119.601L271.049 118.257L273.301 118.85L279.265 123.436L279.976 125.017L279.7 126.599L277.725 128.536L269.627 134.309L268.245 136.8L265.638 144.589L265.48 148.74L266.744 155.857L267.731 157.359L271.76 157.873L276.974 156.647L277.883 157.754L278.673 159.336L280.213 169.655L281.517 172.7L283.255 173.688L283.768 174.083L285.072 174.677L286.81 175.784L288.469 178.354L288.982 178.749Z" fill="#EAEAEA" stroke="white" stroke-width="2" stroke-linecap="round" stroke-linejoin="round"/>
<path d="M149.389 216.942L148.678 216.902L147.375 217.14L146.348 218.049L145.242 218.642L142.911 218.326H142.2L134.616 211.565L133.984 211.486L132.918 211.525L129.323 210.102L127.862 209.193L128.612 207.769L129.718 206.385L129.758 205.278L129.165 203.934L127.427 202.076L127.032 201.364L126.045 200.455L125.413 199.427L124.781 198.004L124.228 195.987L123.951 195.355L123.635 194.999L122.648 194.682L122.371 194.366L121.858 193.971L121.344 193.338L120.712 191.717L117.631 186.814L117.315 185.352L117.236 184.64L121.265 182.465L122.648 182.623L123.359 182.505L124.03 182.189L124.939 181.991L126.163 182.703L127.427 183.731L128.731 183.889L129.758 183.651L130.39 183.889L131.298 183.691L133.589 182.189L134.379 182.03L137.065 181.951L137.895 181.675L138.369 181.161L139.238 181.042L140.028 181.714L140.225 182.821L140.462 183.414L140.976 183.572L141.292 183.889L141.45 184.6L141.924 185.312L141.805 187.091L142.003 188.989L144.61 191.005L145.676 192.073L148.046 193.892L149.113 195.829L149.468 198.32L148.836 199.625L148.007 200.178L147.928 200.929L148.323 201.641L148.955 202.432L148.994 203.183L148.125 203.539L147.454 204.053L147.335 205.358L147.77 208.086L149.626 214.253L149.587 216.112L149.389 216.942Z" fill="#EAEAEA" stroke="white" stroke-width="2" stroke-linecap="round" stroke-linejoin="round"/>
<path d="M111.43 177.286L112.417 179.737L113.523 180.33L115.301 180.212L117.355 181.002L118.224 182.149L117.789 182.821L117.236 184.64L117.315 185.352L117.631 186.814L120.712 191.717L121.344 193.338L121.858 193.971L122.371 194.366L122.648 194.682L123.635 194.999L123.951 195.355L124.228 195.987L124.781 198.004L125.413 199.427L126.045 200.455L127.032 201.364L127.427 202.076L129.165 203.934L129.758 205.278L129.718 206.385L128.612 207.769L127.862 209.193L126.519 211.011L124.07 213.225L122.49 213.898L121.779 214.412L121.265 215.123L120.949 215.874V217.298L121.897 220.658L121.937 221.607L121.858 221.963L121.739 222.675L121.542 223.466L121.7 224.059L125.176 223.584L126.005 224.652L127.585 226.233L129.521 227.301L130.706 228.131L131.061 229.357L129.876 232.164L129.995 233.39L130.666 234.141L131.022 235.722L131.377 239.439L128.257 239.281L127.072 238.688L124.978 239.043L123.635 239.716L123.122 239.478L122.371 239.399L121.621 239.518L120.87 239.795L114.471 243.907L113.721 244.223L113.049 244.065L112.496 243.234L112.457 242.839L112.417 241.771L112.259 241.376L111.983 240.902L111.785 240.783L111.39 240.664L110.956 240.625L110.284 240.744L110.047 240.783L109.81 240.744L109.494 240.506L109.336 240.467L108.902 240.546L108.151 240.862L107.717 240.941L107.203 240.902L107.006 240.704L107.045 239.716L106.69 239.439L106.611 239.32V238.846L106.729 238.49V238.332L106.453 238.174L106.334 238.569L106.137 238.964L105.821 239.281L105.505 239.32L105.11 239.083L104.952 238.767L104.715 238.529L104.359 238.49L103.885 238.332L102.542 237.541L102.266 237.304L102.147 236.513L101.792 236.039L101.239 235.762L100.567 235.604L100.804 235.208L101.16 235.129L101.989 235.248H102.424L103.095 235.011L103.451 234.932L103.885 235.05L104.715 235.485L104.991 235.604L105.465 235.643L105.781 235.801L106.058 236.039L106.334 236.394L106.453 236.078L106.848 235.406L107.44 234.615L107.559 234.378L107.598 233.943L107.164 234.062L106.848 233.864L106.65 233.469L106.492 232.599L106.255 232.717L105.939 233.073L105.623 233.31L105.663 232.994L105.781 232.836L105.584 232.559L105.426 232.599L105.228 232.757L104.912 232.836L104.794 232.757L104.596 232.401L104.438 232.322L104.004 232.52L103.609 232.441L103.253 232.322H102.898L102.542 232.52L101.831 232.401L101.239 232.757L101.081 233.231L101.634 233.508L102.266 233.627L102.779 233.943L102.937 234.378L102.542 234.773H102.187L101.081 234.615L100.844 234.694L99.7375 235.762L99.5005 236.118L99.382 236.434L99.619 236.632L99.3425 237.106L99.461 237.62L99.8165 238.015L100.251 238.332L100.567 238.688L100.765 239.122L100.883 239.636L101.002 240.704L100.962 240.981L100.765 241.495L100.725 241.771V242.009L100.844 242.444V242.72L100.725 243.195L100.449 243.59L100.093 243.907L99.6585 244.025L98.276 243.867L97.9205 244.025L97.5255 243.827L96.1035 243.867L95.2345 243.353L94.9185 243.313L94.8395 243.709L94.958 243.986L95.2345 244.42L95.274 244.776L95.2345 244.974L95.0765 245.211L94.721 245.488L94.247 245.607L92.4695 245.448L91.8375 245.29L91.5215 245.093L91.245 244.855L91.008 244.579L90.85 244.104L90.8105 243.788L90.4155 242.641L90.2575 242.365L89.8625 241.89L89.586 241.337L89.5465 241.178L89.586 240.902L89.9415 240.546L90.0995 240.348L90.139 240.071L90.0995 239.834L89.8625 239.399L89.0725 238.648L88.4405 237.897L88.006 237.225L87.8085 237.027L87.5715 236.948H87.3345L86.584 237.067L86.0705 237.027L85.873 236.948L85.6755 236.75L85.5965 236.553L85.4385 235.485L85.241 234.971L85.004 234.497L84.6485 234.141L84.214 233.943L82.0415 233.627L82.002 232.915L82.081 221.449L82.0415 221.133L81.8045 221.014H75.0895L75.208 211.13L78.3285 202.629L78.447 202.076L78.4075 201.562L78.131 201.127L77.3015 200.534L76.9855 200.139L76.788 199.545L76.6695 199.348L76.551 199.19L76.156 198.952L76.0375 198.755L75.287 197.45L75.208 197.015L75.0105 196.58L74.2995 196.224L73.9835 195.869L73.5095 194.801L73.1935 194.366L73.7465 194.168L75.8795 192.745L76.63 191.559L76.3535 190.017V188.791L77.815 186.735L79.711 182.347L80.817 180.686L83.6215 173.332L84.7275 172.502L89.744 172.146L91.2055 171.711L93.378 171.553L95.4715 172.186L96.538 173.214L97.802 173.569L102.305 174.044L107.085 177.325L109.968 177.602L111.43 177.286Z" fill="#EAEAEA" stroke="white" stroke-width="2" stroke-linecap="round" stroke-linejoin="round"/>
<path d="M75.524 139.449L76.0375 139.686L76.9065 140.239L77.341 140.872L86.11 146.644L90.6525 147.198L91.403 147.475L91.9955 147.316L93.062 146.209L93.615 146.091L94.6815 146.13L96.0245 145.972L101.594 148.384L101.278 148.898L101.12 149.689L101.397 150.361L101.476 150.914L100.646 152.812L100.488 153.366L100.37 153.959L100.646 154.473L101.673 155.066L103.016 155.58L105.307 155.778L105.9 155.975L107.519 154.947L107.914 154.552L108.586 152.377L109.494 151.863L110.64 151.468L111.667 150.914L112.773 151.27L113.681 152.338L114.234 153.287L114.274 153.959L113.918 154.67L113.721 155.382L113.918 155.975L114.59 156.529L116.091 157.319L116.802 158.071L117.434 158.545L117.908 158.229L118.066 157.596L118.461 156.805L119.172 156.291L119.606 156.568L119.962 157.161L120.594 157.675L121.028 158.11V158.822L121.147 159.534L122.45 160.245L122.648 160.443L122.174 161.431L122.095 162.736L122.134 163.804L120.08 167.955L119.962 168.548L119.922 168.983L119.448 169.299L116.407 170.13L115.222 171.513L114.866 174.439L113.918 175.111L112.299 175.665L111.825 175.981L111.548 176.456L111.43 177.049V177.286L109.968 177.602L107.085 177.325L102.305 174.044L97.802 173.569L96.538 173.214L95.4715 172.186L93.378 171.553L91.2055 171.711L89.744 172.146L84.7275 172.502L83.6215 173.332L80.817 180.686L79.711 182.347L79.474 182.109L79.0395 181.516L75.761 174.558L73.3515 171.395L72.68 170.644L72.4035 170.485L72.0085 170.367L71.732 170.09L71.337 169.299L70.863 168.746L70.626 168.627H70.31L70.073 168.548L69.9545 168.232L69.7175 167.955L67.229 166.729L66.36 166.492L65.8465 166.176L65.4515 165.78V165.464L65.096 165.306L64.1085 164.515L63.8715 164.318H63.595L63.4765 164.436L63.2395 164.397L63.0815 164.12L62.331 163.883L61.936 163.685L61.699 163.448L61.4225 163.131L61.3435 162.934L61.5805 162.499L61.62 162.262L61.541 162.024L61.3435 161.945L60.2375 161.273L59.803 161.115L59.25 160.443L58.618 160.087L58.144 159.257L57.828 159.099V158.901L58.144 157.952L58.1835 157.596L58.539 157.438L58.8945 157.399L59.329 156.252L60.593 155.066L67.7425 153.049L68.177 152.456L69.283 151.705L69.7965 151.191L70.073 150.638L70.152 149.847L69.994 148.661L69.52 147.554L69.2435 147.158L69.599 146.921L69.8755 146.447L69.7965 146.249V145.972L69.836 145.537L69.7965 145.261L69.7175 145.023L69.441 144.747L69.4015 144.509L69.52 144.153L70.705 143.56L72.1665 143.481L73.154 142.967L73.2725 141.584L73.075 140.239L73.154 139.686L73.5095 139.449L74.102 139.251L75.524 139.449Z" fill="#EAEAEA" stroke="white" stroke-width="2" stroke-linecap="round" stroke-linejoin="round"/>
<path d="M69.244 147.158L69.5205 147.554L69.9945 148.661L70.1525 149.847L70.0735 150.638L69.797 151.191L69.2835 151.705L68.1775 152.456L67.743 153.049L60.5935 155.066L59.3295 156.252L58.895 157.399L58.5395 157.438L58.184 157.596L58.1445 157.952L57.8285 158.901V159.099L58.1445 159.257L58.6185 160.087L59.2505 160.443L59.8035 161.115L60.238 161.273L61.344 161.945L61.5415 162.024L61.6205 162.262L61.581 162.499L61.344 162.934L61.423 163.132L61.6995 163.448L61.9365 163.685L62.3315 163.883L63.082 164.12L63.24 164.397L63.477 164.436L63.5955 164.318H63.872L64.109 164.515L65.0965 165.306L65.452 165.464V165.781L65.847 166.176L66.3605 166.492L67.2295 166.729L69.718 167.955L69.955 168.232L70.0735 168.548L70.3105 168.627H70.6265L70.8635 168.746L71.3375 169.299L71.7325 170.09L72.009 170.367L72.404 170.485L72.6805 170.644L73.352 171.395L75.7615 174.558L79.04 181.516L79.4745 182.11L79.7115 182.347L77.8155 186.735L76.354 188.791V190.017L76.6305 191.559L75.88 192.745L73.747 194.168L73.194 194.366L73.1545 194.327L72.7595 194.168L72.4435 194.129L72.1275 193.654L71.851 193.496L71.535 193.417L71.377 193.299L71.4165 192.785L71.4955 192.508L71.7325 192.073V191.717L71.6535 191.401L71.2585 191.084L71.14 190.808L70.824 190.571L70.271 189.78L69.6785 189.187L69.4415 188.752L69.718 188.08L69.876 187.803V187.487L69.7575 187.328L69.2045 186.894L68.849 186.459L68.612 186.103L68.375 185.786L67.9405 185.549L66.7555 185.154H66.479L65.531 185.668L65.1755 185.786L64.4645 185.866L63.8325 185.747L63.2005 185.391L62.529 184.917L56.4065 179.54L55.5375 178.591L54.1945 177.76L53.286 177.009L51.311 175.863L50.7185 175.27L48.704 174.281L46.5315 173.609L44.122 173.886L42.8975 173.728L42.463 172.779L42.7395 172.462L43.0555 172.186L43.3715 171.869L43.49 171.474L43.411 171.118L43.095 170.881L42.7 170.683L41.831 170.604L41.515 170.367L41.5545 170.051L41.9495 169.813L42.4235 169.774L42.7395 169.813L43.095 169.734L43.5295 169.418L44.0825 168.864L44.359 168.509L44.4775 168.192V167.995L44.2405 167.836L44.1615 167.599V167.402L44.28 166.927V166.69L44.122 166.295L43.806 165.978L43.174 165.464L42.3445 164.318L41.673 163.646L41.5545 163.29V162.894L41.4755 162.38L41.3175 161.906L41.0805 161.51L40.409 160.641L40.093 160.483L39.856 160.562L39.5005 160.917L38.8685 160.997L38.276 160.838L37.9205 160.562L38.2365 160.127L39.224 159.534L39.461 159.138L39.303 158.624L38.8685 158.308L38.513 157.952L38.592 157.201L38.1575 157.32H37.17L36.8145 157.478L36.222 158.031L35.8665 158.268L35.511 158.347L35.3925 158.189V157.32L35.3135 157.122L35.7875 156.766L36.222 153.208L36.9725 150.717L37.2095 149.135L36.933 148.226L37.2885 147.751L38.513 147.791L41.673 147.396L44.7145 148.661L46.3735 148.779L48.0325 149.175L49.3755 150.005L50.8765 151.31L56.0115 152.97L58.421 153.168L61.897 152.259L65.0965 152.417L65.4915 151.587L65.8075 150.005L65.4915 149.372L64.9385 148.542V147.751L68.217 147L68.8885 147.079L69.244 147.158Z" fill="#EAEAEA" stroke="white" stroke-width="2" stroke-linecap="round" stroke-linejoin="round"/>
<path d="M94.2861 36.6512L94.4046 36.9279L95.0761 37.4815L95.4711 38.035L95.5896 38.549L96.1031 38.7467L96.8536 38.9048L97.1696 39.2607L97.0116 39.7351L92.3901 45.2308L91.9556 46.2192L91.7976 47.6031L91.1261 48.631L91.0866 50.0544L92.9826 55.2733L96.3401 60.6109L97.4856 61.797L98.7891 62.825L99.4606 63.6948L99.5001 64.4065L99.3816 65.5531L99.5791 66.8973L99.7766 67.5299L98.4336 66.7787L97.6831 67.0159L96.8931 67.5695L96.1426 67.4509L95.5896 67.1346L95.1946 67.2927L94.9181 67.7276V68.1625L94.6416 68.637L94.0491 68.7556L92.5086 67.1346L91.6791 66.8183L91.0866 66.9764L90.4941 66.7392H90.3361L90.0201 66.1857L89.7436 66.0275H89.0326L88.7166 66.1461L88.5586 66.3833H88.4006L88.5586 65.8694L87.6106 65.0786L87.1761 64.6437L85.9516 63.8134L85.3986 62.5482L85.2406 60.6899L84.6876 60.2155L83.1866 59.4248L82.7521 59.3457L82.6336 59.4248L80.6191 58.1596L80.0266 55.3524L80.1846 52.9801L80.6586 52.0313L80.8561 51.28L80.6586 50.8451L79.2761 49.5799L77.6566 47.3658L76.6296 44.7959L76.5111 42.74L75.9186 40.8026L74.4966 40.0909L69.8751 40.7631L69.2826 40.684L69.0061 40.4468L68.3741 39.8142L67.0706 40.0119L66.0831 40.3677L65.8461 39.577L65.9251 38.2327L66.3596 37.2838L66.8731 36.6116L67.5051 35.386L69.1641 34.1999L69.9936 33.251L71.4156 32.8556L72.8771 33.0928L73.8646 32.4207L73.4696 31.1159L72.4031 30.5229L72.3636 29.7717L73.1536 28.7832L73.3511 27.0041L72.1661 24.0387L72.1266 22.0619L71.8106 21.627L72.0871 18.6221L71.2576 18.3058L69.9541 19.4919L68.5716 20.3222L67.7421 20.2431L66.2016 21.3107L63.8711 25.383L64.1476 25.8179L64.4636 25.9365L64.1871 26.2528L62.9231 27.2413L62.1726 28.3088L61.3036 28.9809L58.2621 28.1111L56.9191 28.5065L55.4971 29.2577L54.1146 29.7717L53.0481 29.1786L52.4951 27.7553L52.8111 26.1342L53.6406 25.0272L54.1936 24.7109L54.3911 24.3155L55.1416 24.2364L56.2476 24.5132L56.5241 24.276L56.6426 23.5248L56.6821 22.7735L56.7216 22.3782L57.1561 22.3386L58.0646 23.1294L58.9731 22.9317L59.8026 22.4572L61.0666 22.2991L62.8441 21.0734L63.2786 20.4804L63.3971 20.0059L63.4761 19.4919L63.0811 17.9104L62.8046 17.3569L62.1726 17.0406L61.8961 16.7243L61.8566 16.4476L61.7776 16.408L61.6196 15.894L61.7776 15.815L62.0936 15.3405L62.4491 14.3521L63.1601 13.1659L63.2391 12.8892L63.4366 12.6915L64.4241 12.0589L66.4386 11.2681L67.3076 10.7937L67.9791 10.082L69.0061 8.77729L69.6776 8.22376L70.5071 7.74931L71.9291 7.27486L72.4031 7.19579L72.6796 7.03764L73.7461 5.93059L76.5901 4.30956L77.7751 3.0839L78.1701 2.80713L78.6441 2.68852L80.1846 2.72806L80.4611 2.64898L80.6586 2.4513L80.8956 2.09546L81.1721 2.17453L81.5671 2.4513L82.8311 3.63742L86.2676 7.74931L87.6501 9.05405L88.2426 9.8448L88.6771 10.7937L87.9661 11.0705L86.8601 11.7821L85.5961 12.0194L84.9246 12.4147L84.3321 12.9683L83.9371 13.7195L83.8976 14.6288L84.1741 15.3405L84.6876 16.0522L85.8331 17.1592L87.0181 17.6732L87.2946 17.95L87.9266 19.2942L88.0451 19.6105V19.9664L87.9266 20.3618L87.7686 20.6781L87.5711 20.9944L86.7416 21.5083L82.9496 22.1805L82.9101 22.3386L82.8311 22.6945L81.7646 23.3666L81.5671 23.6829L81.6461 24.7504L82.0411 25.5016L83.3841 26.5691L86.0701 27.9134L86.3071 28.1111L86.4651 28.7437L86.3861 29.2181L86.4256 29.6926L87.4131 30.4833L87.7291 30.9578L88.1241 31.3136H88.7561L89.7831 30.8392H90.2571L90.4941 31.3927L90.6126 32.1044L90.8891 32.4602L91.2051 32.737L91.5606 33.2905L91.9161 33.6463L92.1926 34.0812L92.9826 35.0697L93.5356 36.0186L94.1676 36.6512H94.2861Z" fill="#EAEAEA" stroke="white" stroke-width="2" stroke-linecap="round" stroke-linejoin="round"/>
<path d="M138.922 108.135L139.869 109.321L140.383 110.349L140.422 112.089L138.645 117.822L138.052 118.652L137.381 120.589L137.025 124.424L136.788 125.373L136.393 125.61L134.3 126.322L131.772 126.717L130.547 127.548L128.77 128.062L126.913 127.785L125.768 128.734L125.728 130.355L126.163 130.948L125.926 131.462L124.03 132.529L123.832 133.834L124.938 135.099L125.847 135.93L126.597 136.286L127.387 136.206L128.019 136.562L128.612 137.274L128.928 137.986L128.849 139.014L129.323 140.239L130.271 141.425L131.614 142.572L136.907 143.046L139 144.193L143.701 145.498L143.464 146.961L141.528 151.705L140.975 152.654H139.79L138.527 153.089L137.381 154.038L136.077 154.868L127.585 157.082L124.346 159.02L122.647 160.443L122.45 160.245L121.147 159.534L121.028 158.822V158.11L120.593 157.675L119.962 157.161L119.606 156.568L119.172 156.291L118.46 156.805L118.065 157.596L117.907 158.229L117.433 158.545L116.802 158.071L116.09 157.319L114.589 156.529L113.918 155.975L113.72 155.382L113.918 154.67L114.273 153.959L114.234 153.287L113.681 152.338L112.772 151.27L111.667 150.914L110.639 151.468L109.494 151.863L108.585 152.377L107.914 154.552L107.519 154.947L105.899 155.975L105.307 155.778L103.016 155.58L101.673 155.066L100.646 154.473L100.369 153.959L100.488 153.366L100.646 152.812L101.475 150.914L101.397 150.361L101.12 149.689L101.278 148.898L101.594 148.384L103.727 146.447L104.082 145.972L104.162 145.379L103.767 143.798L103.648 142.414L103.332 141.07L101.87 138.223L101.712 135.613L101.357 134.032L100.33 133.637L100.053 132.925L100.764 132.648L102.858 132.885L103.806 133.32L104.28 133.202L103.924 131.304L104.003 129.564L104.517 128.655L104.793 127.785L104.557 126.322L105.07 125.531L108.783 125.334L110.56 125.65L111.034 126.362L110.6 127.311L110.916 128.418L111.706 129.406L112.377 129.999L113.286 130.078L113.76 129.09L113.325 126.401L112.812 125.176L111.824 123.989L110.797 123.475L108.585 122.882L107.677 122.408L107.203 121.973L107.163 121.617L107.519 121.182L108.151 121.103L109.297 120.747L110.284 119.601L110.047 118.454L109.138 116.912L108.743 115.252L109.375 114.421L109.928 114.382L110.007 114.856L109.968 115.489L110.363 116.042L111.074 116.201L111.745 115.41L111.824 114.461L111.35 113.828L111.192 112.919V112.326L114.787 112.247L115.379 110.823L116.248 110.191L119.843 109.084L120.909 108.57L122.015 108.214L122.963 108.174L126.637 106.593L127.822 106.514L128.454 106.593L129.323 106.791L131.377 106.949L133.392 107.502L134.577 108.57L135.09 108.886L135.287 108.53V108.095L134.497 106.988L134.774 106.316H135.919L136.709 107.265V108.649L136.828 109.479L137.42 109.4L137.973 108.214L138.922 108.135Z" fill="#EAEAEA" stroke="white" stroke-width="2" stroke-linecap="round" stroke-linejoin="round"/>
<path d="M161.041 126.401L161.318 127.39L161.278 129.406L160.725 131.581L159.817 133.716L159.145 134.704L152.272 136.483L150.692 136.404L146.268 136.918L144.333 137.748L143.543 138.539L143.306 139.251L142.713 144.114L143.148 145.181L143.701 145.498L139 144.193L136.907 143.046L131.614 142.572L130.271 141.425L129.323 140.239L128.849 139.014L128.928 137.986L128.612 137.274L128.019 136.562L127.387 136.206L126.597 136.286L125.847 135.93L124.938 135.099L123.832 133.834L124.03 132.529L125.926 131.462L126.163 130.948L125.728 130.355L125.768 128.734L126.913 127.785L128.77 128.062L130.547 127.548L131.772 126.717L134.3 126.322L136.393 125.61L136.788 125.373L137.025 124.424L137.381 120.589L138.052 118.652L138.645 117.822V117.901L144.491 117.94L149.428 119.443L161.041 126.401Z" fill="#EAEAEA" stroke="white" stroke-width="2" stroke-linecap="round" stroke-linejoin="round"/>
<path d="M86.3865 106L87.058 107.226L88.006 107.819L92.3905 107.977L94.168 108.926L95.8665 109.361L97.407 108.807L98.1575 107.779V107.344L99.1055 106.949L101.357 106.988L103.056 107.937L103.806 108.926L103.214 109.875L104.596 110.942L107.203 111.377L107.796 111.258L110.679 111.97L111.193 112.326V112.919L111.351 113.828L111.825 114.461L111.746 115.41L111.074 116.201L110.363 116.042L109.968 115.489L110.008 114.856L109.929 114.382L109.376 114.421L108.744 115.252L109.139 116.912L110.047 118.454L110.284 119.601L109.297 120.747L108.151 121.103L107.519 121.182L107.164 121.617L107.203 121.973L107.677 122.408L108.586 122.882L110.798 123.475L111.825 123.989L112.812 125.176L113.326 126.401L113.76 129.09L113.286 130.078L112.378 129.999L111.706 129.406L110.916 128.418L110.6 127.311L111.035 126.362L110.561 125.65L108.783 125.334L105.07 125.531L104.557 126.322L104.794 127.785L104.517 128.655L104.004 129.564L103.925 131.304L104.28 133.202L103.806 133.32L102.858 132.885L100.765 132.648L100.054 132.925L100.33 133.637L101.357 134.032L101.713 135.613L101.871 138.223L103.332 141.07L103.648 142.414L103.767 143.798L104.162 145.379L104.083 145.972L103.727 146.447L101.594 148.384L96.0245 145.972L94.6815 146.13L93.615 146.091L93.062 146.21L91.9955 147.317L91.403 147.475L90.6525 147.198L86.11 146.644L77.341 140.872L76.9065 140.239L76.0375 139.686L75.524 139.449L75.8795 138.776L76.63 137.63L78.6445 137.472L80.9355 137.946L81.5675 137.432L81.528 136.286L81.7255 134.665L81.528 133.637L81.133 133.044L80.659 133.162L79.7505 133.558L77.973 135.376L77.4595 134.586L77.183 133.558L76.63 133.281L75.9585 133.123L74.4575 132.332L73.391 131.462L73.1935 130.474L73.5095 130.078L74.1415 129.841L76.1955 129.604L77.1435 128.18L77.973 126.362L78.6445 125.571L78.763 124.899L78.7235 124.503L79.3555 124.187L80.6195 123.792L81.37 123.396L81.5675 122.685L81.9625 122.606L82.634 124.227L83.0685 124.464L83.74 123.871L84.451 122.724L84.8855 120.866L84.293 118.533L83.1475 117.387L82.318 116.833L81.291 115.608L79.1185 110.705L77.6965 108.57L78.0125 107.937L79.079 106.751L79.553 106.672L80.501 108.688L81.133 108.886L81.8045 108.57L82.397 108.016L83.8585 107.502V106.87L83.6215 106.316L82.9895 105.565L82.634 104.537L83.3845 104.339L86.3865 106Z" fill="#EAEAEA" stroke="white" stroke-width="2" stroke-linecap="round" stroke-linejoin="round"/>
<path d="M99.777 67.53L102.858 69.5069L105.149 71.8791L106.018 73.3025L107.203 77.4935L105.544 78.0865L103.332 79.5494L102.502 81.4867L102.937 83.1078L104.003 84.4916L104.675 86.1522L105.346 87.1801L106.373 87.6941L107.005 87.7337L107.4 87.9313L107.756 88.3663L108.309 88.643L108.664 89.3547L109.02 90.6199L109.652 91.6479L110.126 92.7154L110.442 95.4039L109.968 96.0761L106.255 97.104L104.201 98.2902L102.937 99.674L102.818 100.702L102.858 100.979L101.001 100.109L99.6585 100.03L97.802 100.544L96.6565 101.374L95.9455 101.532L95.037 101.572L94.405 101.69L94.01 102.007L94.0495 102.758L96.6565 105.13L98.1575 107.344V107.779L97.407 108.807L95.8665 109.361L94.168 108.926L92.3905 107.977L88.006 107.819L87.058 107.226L86.3865 106L86.189 105.446L85.794 104.735L85.4385 104.418L79.79 100.979L79.5135 100.307L79.869 99.3972L80.659 98.5274L81.0935 96.7087L81.133 94.0992L80.738 92.6758L80.3035 92.5968L80.264 92.4386L80.422 92.0828L80.4615 91.9246L80.3035 91.292L80.343 91.0943L80.58 90.8967L80.3825 90.5804L80.1455 90.1059L79.948 89.5524L79.869 89.0384L79.7505 88.7616L79.079 88.05L79 87.9313L68.73 85.8754L68.1375 85.2823L65.2935 78.9563L65.175 78.1261V76.8609L65.57 76.0701L68.651 72.9071L69.52 71.4838L70.152 71.0489L71.495 70.3767L72.601 69.1906L73.312 68.7557L74.023 68.4394L80.4615 67.6882L82.397 68.0045L83.7005 67.7672L88.5985 68.2812L90.139 67.6882L90.85 67.1346L91.087 66.9765L91.6795 66.8183L92.509 67.1346L94.0495 68.7557L94.642 68.6371L94.9185 68.1626V67.7277L95.195 67.2928L95.59 67.1346L96.143 67.4509L96.8935 67.5696L97.6835 67.016L98.434 66.7788L99.777 67.53Z" fill="#EAEAEA" stroke="white" stroke-width="2" stroke-linecap="round" stroke-linejoin="round"/>
<path d="M128.849 81.1309L134.261 85.7567L135.406 86.3498L138.724 88.8802L138.961 89.5919V90.1058L134.103 89.5919L131.812 89.75L131.219 90.6594L132.246 92.0827L132.997 92.7549L134.458 93.1898L135.406 93.9805L134.735 96.1946L133.787 98.211L133.51 99.1599L132.839 99.8321L128.691 101.848L127.585 102.956L127.309 103.944L127.467 104.695L128.02 105.881L128.454 106.593L127.822 106.514L126.637 106.593L122.964 108.174L122.016 108.214L120.91 108.57L119.843 109.084L116.249 110.191L115.38 110.823L114.787 112.247L111.193 112.326L110.679 111.97L107.796 111.258L107.203 111.377L104.596 110.942L103.214 109.875L103.806 108.926L103.056 107.937L101.357 106.988L99.1055 106.949L98.1575 107.344L96.6565 105.13L94.0495 102.758L94.01 102.007L94.405 101.69L95.037 101.572L95.9455 101.532L96.6565 101.374L97.802 100.544L99.6585 100.03L101.002 100.109L102.858 100.979L102.819 100.702L102.937 99.6739L104.201 98.2901L106.255 97.104L109.968 96.076L110.442 95.4039L110.126 92.7153L109.652 91.6478L109.02 90.6198L108.665 89.3546L108.309 88.643L107.756 88.3662L107.401 87.9313L107.006 87.7336L106.374 87.6941L105.347 87.1801L104.675 86.1521L104.004 84.4915L102.937 83.1077L102.503 81.4867L103.332 79.5494L105.544 78.0865L107.203 77.4934L109.139 78.4423L109.178 78.8772L109.455 79.668L110.6 81.1309L111.825 82.317L114.629 83.1473L115.696 83.1077L116.328 83.2263L116.762 83.5426L118.619 83.8985L119.646 83.7403L123.477 81.6448L123.912 81.4867L124.346 81.2495L126.045 80.8936L128.849 81.1309Z" fill="#EAEAEA" stroke="white" stroke-width="2" stroke-linecap="round" stroke-linejoin="round"/>
<path d="M30.612 21.271L28.242 23.841L27.768 24.9085L27.1755 27.7156L27.452 29.2181L28.005 30.6019L27.9655 31.9066L27.215 33.2904L23.6995 36.9279L22.554 38.8652L22.317 40.0118L22.5935 40.8816L23.897 42.6213H24.055V42.9771L24.3315 43.3329L24.45 43.5306L24.5685 44.0051L24.608 44.2818L24.4895 44.5586L24.45 45.3889L25.161 52.387L25.5955 52.9405L25.714 53.2568L25.872 54.8383L25.793 54.9569L25.398 55.2337L25.319 55.5105L25.477 55.9058L25.7535 56.4594L25.872 56.8943L27.2545 58.5549L27.768 59.741L27.531 62.9435L27.8075 64.3273L28.558 65.4739L34.5225 69.4277L37.169 69.9021L39.381 69.9416L42.1855 72.5116L42.541 73.1837L45.069 74.6466L45.9775 75.4373L46.9255 75.8327L47.518 75.4373L47.834 74.9234L47.913 74.6861L48.229 73.9745L48.9005 73.1046L50.125 72.3139L51.1125 72.1162L51.626 72.1557L52.179 71.6417L53.048 71.0487L53.996 71.2068L54.628 71.879L55.418 72.393L56.4845 72.6302L57.1165 73.1837L57.1955 73.6977L56.9585 74.0931L57.7485 76.4653V78.1654L58.4595 79.2329L60.474 79.5097L65.293 78.9562L68.137 85.2822L67.6235 85.4403L67.031 85.8357L66.952 86.3101L67.11 86.745L66.9915 87.1404L66.636 87.8521L65.767 88.8405L64.2265 89.5127L61.9355 89.315L59.8025 88.7219L59.0125 88.1684L58.657 87.8126L58.262 87.4567L57.9855 87.0613L57.8275 86.745L57.5905 86.5474L47.0045 87.5358L41.8695 86.8241L40.092 87.4963L39.6575 88.0893L39.618 89.315L38.6305 90.8174L35.3125 91.8849L34.6805 92.5571L34.4435 92.992L34.009 93.4269L33.7325 94.6921L32.587 95.9573L32.271 96.7876L31.4415 97.5783L30.77 98.0132L30.296 97.8551H29.7825L29.0715 98.2109L28.716 98.3295L28.321 98.6063L27.847 98.7644L27.4125 98.6854L27.057 98.3295L26.899 97.8946L27.057 97.3806L27.294 96.8666L27.531 96.4713L27.61 95.9573L27.373 95.4433L26.741 94.613L26.6225 94.099L26.662 92.9129L26.583 92.4384L26.267 92.1221L25.9115 91.8454L25.793 91.5291L26.267 91.2128L25.9115 90.6988L25.7535 90.2639L25.714 89.1964L25.5955 88.6033L25.398 87.9707L25.0425 87.4963L24.529 87.4567L23.3835 87.9312L22.791 87.9707L22.238 87.6939L22.001 87.4172L21.764 86.6264L21.29 85.9938V85.638L21.0135 85.3612L20.6185 85.0054L20.342 84.61L20.3815 84.2147L20.7765 84.017L20.816 83.4634L21.0135 82.5936L21.4085 81.6843L21.448 81.2098L21.2505 80.6563L20.737 79.7469L20.421 79.312L20.105 79.1539L19.8285 79.1143L19.5915 79.0748L19.394 78.9166L18.92 78.4422L18.6435 78.4026L18.0115 78.4422L17.4585 78.3236L17.0635 78.0468L16.9055 77.6119L17.1425 76.9793L17.8535 76.0699L18.13 75.635L18.2485 75.0024L18.13 74.4489L17.972 74.014L17.8535 73.5791L17.972 72.8674L18.1695 72.5906L18.209 72.3139L18.0905 72.0767L17.6165 71.8394L17.3795 71.6022L17.261 71.5231H17.0635L16.6685 71.6417L16.471 71.6022L16.3525 71.4836L16.1945 70.9301L15.76 70.6928L15.6415 70.5347L15.444 70.0602V69.823L15.7205 69.0718L15.8785 68.5974L15.7205 68.1624L15.5625 67.7275L15.4835 67.2135L15.602 66.7391L15.8785 66.5414L16.155 66.3437L16.392 66.0274L16.471 65.1971L15.997 64.6832L14.812 63.9319L14.654 63.5761L14.5355 63.2203L14.338 62.983L13.5875 63.0621L13.4295 62.8644L13.1135 62.1132L12.7975 61.876L12.047 61.8365L11.7705 61.6783L11.652 61.2434L11.9285 60.4526L11.731 59.5037L11.7705 58.8711L11.889 58.2386L12.0865 57.7246L12.0075 57.2896L11.5335 56.9338L11.1385 56.4594L11.2175 55.6686L11.3755 55.4314L12.0865 54.8779L12.3235 54.522L12.2445 54.2848L11.494 53.3754L11.02 52.9405L10.4275 52.6638L9.87453 52.7428L9.59803 52.8615L9.28203 52.9801H9.00553L8.84753 52.6638L8.96603 52.1102L8.92653 51.9521L8.76853 51.8335L8.49203 51.9126L8.33403 51.873L8.13653 51.5963L7.93903 50.9637L7.82053 50.7264L7.58353 50.5683L6.87253 50.2124L6.59603 50.1334L5.29253 50.2915L4.58153 50.1729L4.22603 49.6194L4.30503 49.3031L4.70003 48.7891L4.66053 48.4333L4.58153 48.0774L4.62103 47.7611L4.73953 47.4448L5.09503 46.7332L5.60853 46.1796L5.76653 45.7843L5.92453 45.2307L6.12203 44.8749L6.39853 44.6772L6.79353 44.4795L6.91203 44.3214L6.75403 43.8469V43.6097L6.95153 43.4515L7.30703 43.2934L7.46503 43.0957L7.58353 42.7399L7.70203 42.2259L7.78103 41.7119L7.70203 40.4467L8.25503 39.8141L9.00553 39.221L9.47953 38.5489L9.44003 38.1535L9.32153 37.7186L9.04503 37.3628L8.76853 37.1256L8.45253 37.0069L8.17603 37.0465L7.50453 37.4419L6.47753 37.2837L6.00353 37.0069L5.92453 36.7697L6.00353 36.0976L5.96403 35.4254V35.1487L6.20103 34.0812L6.24053 33.6463L6.04303 32.302L6.16153 31.274V30.7205L6.00353 30.2856L5.68753 30.0088L5.33203 29.8902L5.09503 29.7716L5.13453 29.6134L5.33203 29.4158L5.41103 29.2181L5.29253 28.7436L5.21353 28.4669L5.17403 28.111L5.25303 27.597L5.80603 25.6992L5.68753 24.9085L4.62103 24.3945L4.30503 24.0782L4.02853 23.6828L3.67303 22.6944V22.2199L3.31753 21.9432L3.19903 21.7455L3.12003 21.3501L2.92253 20.9547L3.23853 20.4803L3.55453 20.2035L3.75203 19.8872L3.55453 18.8593L3.67303 18.4243L4.06803 17.6336L3.91003 17.001L3.12003 16.4079L2.21153 15.9335L1.65853 15.5381V15.3009L1.77703 14.8264V14.5892L1.54003 14.0752L1.46103 13.6008L1.50053 13.2449L1.26353 12.7309L1.14503 12.1774L1.06603 11.9007L0.513031 11.2681L0.394531 10.9518L0.631531 10.6355L1.02653 10.3587L1.34253 10.2401H1.65853L2.13253 10.2796L2.60653 10.2401L3.71253 9.96333L4.18653 10.0029L5.60853 10.7145L6.12203 10.7541L6.55653 10.6355L7.62303 10.161L8.01803 9.88425L8.37353 9.33073V8.85628L8.29453 8.38183L8.41303 7.78877L8.61053 7.47247V7.15617L8.49203 6.44449L8.53153 6.00958L8.65003 5.65374L9.32153 4.26993L9.44003 3.9141L9.47953 3.51872L9.40053 2.6489L9.47953 2.3326L11.652 0.553413L12.1655 0.395264L12.4815 0.632488L12.995 1.46277L13.311 1.77907L14.496 2.3326L14.891 2.68844L16.5895 3.9141L16.629 3.95363L16.9845 4.19086L17.419 4.26993H17.893L17.7745 4.46762L18.209 4.78392L18.446 5.37698L19.0385 7.90738L19.315 8.4609L19.71 8.81674L19.552 9.17258L19.631 9.33073L20.1445 9.7261L20.658 9.76564L20.816 10.0819L21.5665 10.5959L21.922 11.189L22.1195 11.4657L22.317 11.5448L22.475 11.8216L22.9885 12.9286L23.3045 13.4822L23.502 14.7869L23.6205 15.1823L24.1735 15.0241L26.3065 15.7358L26.662 15.4986L26.8595 15.5381L26.9385 15.6963L26.8595 16.1707L27.057 16.2498L27.3335 16.3289L27.61 16.487L27.7285 16.7638L27.5705 17.1591L27.689 17.4359L28.084 17.6731L28.242 17.8708L28.5185 18.6616L28.5975 18.8988L28.795 19.0174L29.269 19.2546L29.3875 19.4128L29.348 19.6895L29.19 20.1245L29.2295 20.4012L29.4665 20.7175L29.901 20.9943L30.375 21.2315L30.612 21.271Z" fill="#EAEAEA" stroke="white" stroke-width="2" stroke-linecap="round" stroke-linejoin="round"/>
<path d="M91.087 66.9764L90.85 67.1346L90.139 67.6881L88.5985 68.2812L83.7005 67.7672L82.397 68.0044L80.4615 67.6881L74.023 68.4393L73.312 68.7556L72.601 69.1905L71.495 70.3766L70.152 71.0488L69.52 71.4837L68.651 72.907L65.57 76.07L65.175 76.8608V78.126L65.2935 78.9563L60.4745 79.5098L58.46 79.233L57.749 78.1655V76.4654L56.959 74.0932L57.196 73.6978L57.117 73.1838L56.485 72.6303L55.4185 72.3931L54.6285 71.8791L53.9965 71.2069L53.0485 71.0488L52.1795 71.6418L51.6265 72.1558L51.113 72.1163L50.1255 72.314L48.901 73.1047L48.2295 73.9745L47.9135 74.6862L47.8345 74.9234L47.5185 75.4374L46.926 75.8328L45.978 75.4374L45.0695 74.6467L42.5415 73.1838L42.186 72.5117L39.3815 69.9417L37.1695 69.9022L34.523 69.4277L28.5585 65.474L27.808 64.3274L27.5315 62.9436L27.7685 59.7411L27.255 58.5549L25.8725 56.8944L25.754 56.4595L25.4775 55.9059L25.3195 55.5106L25.3985 55.2338L25.7935 54.957L25.8725 54.8384L25.7145 53.2569L25.596 52.9406L25.1615 52.3871L24.4505 45.389L24.49 44.5587L24.6085 44.2819L24.569 44.0052L24.4505 43.5307L24.332 43.333L24.0555 42.9772V42.6214H23.8975L22.594 40.8817L22.3175 40.0119L22.5545 38.8653L23.7 36.928L27.2155 33.2905L27.966 31.9067L28.0055 30.602L27.4525 29.2182L27.176 27.7157L27.7685 24.9086L28.2425 23.8411L30.6125 21.2711L30.9285 21.3897L31.363 21.627L31.6 21.6665L32.153 21.706L33.338 21.9828H35.155L36.656 22.6154L40.9615 23.5248L42.3045 24.1178L43.4895 24.4341L45.0695 24.1969L45.425 24.0388L46.4915 23.2875L46.8865 23.0899L47.163 23.0108L47.953 22.9712L48.427 22.8131L48.664 22.7736L48.9405 22.8526L51.0735 23.8015L51.429 23.9201L51.7845 23.8806L52.2585 23.7225L52.5745 23.4852L52.8905 23.248L53.167 22.9317L53.404 22.5363L53.9965 21.3502L54.2335 20.9944L54.6285 20.6781L55.8135 20.085L56.1295 19.7687L56.485 18.9384L56.722 18.5826L57.2355 18.2663L57.512 17.95L58.0255 17.0406L58.302 16.7243L58.618 16.4476L58.9735 16.2894H59.2895L59.8425 16.5266L60.1585 16.6057L60.3955 16.5662L61.62 15.894L61.778 16.408L61.857 16.4476L61.8965 16.7243L62.173 17.0406L62.805 17.3569L63.0815 17.9105L63.4765 19.4919L63.3975 20.0059L63.279 20.4804L62.8445 21.0734L61.067 22.2991L59.803 22.4573L58.9735 22.9317L58.065 23.1294L57.1565 22.3386L56.722 22.3782L56.6825 22.7736L56.643 23.5248L56.5245 24.276L56.248 24.5132L55.142 24.2364L54.3915 24.3155L54.194 24.7109L53.641 25.0272L52.8115 26.1342L52.4955 27.7553L53.0485 29.1786L54.115 29.7717L55.4975 29.2577L56.9195 28.5065L58.2625 28.1111L61.304 28.9809L62.173 28.3088L62.9235 27.2413L64.1875 26.2529L64.464 25.9366L64.148 25.8179L63.8715 25.383L66.202 21.3107L67.7425 20.2432L68.572 20.3222L69.9545 19.4919L71.258 18.3058L72.0875 18.6221L71.811 21.627L72.127 22.0619L72.1665 24.0388L73.3515 27.0041L73.154 28.7832L72.364 29.7717L72.4035 30.5229L73.47 31.116L73.865 32.4207L72.8775 33.0928L71.416 32.8556L69.994 33.251L69.1645 34.1999L67.5055 35.386L66.8735 36.6117L66.36 37.2838L65.9255 38.2327L65.8465 39.577L66.0835 40.3677L67.071 40.0119L68.3745 39.8142L69.0065 40.4468L69.283 40.684L69.8755 40.7631L74.497 40.091L75.919 40.8026L76.5115 42.74L76.63 44.7959L77.657 47.3658L79.2765 49.5799L80.659 50.8451L80.8565 51.2801L80.659 52.0313L80.185 52.9802L80.027 55.3524L80.6195 58.1596L82.634 59.4248L82.7525 59.3457L83.187 59.4248L84.688 60.2155L85.241 60.69L85.399 62.5482L85.952 63.8134L87.1765 64.6437L87.611 65.0786L88.559 65.8694L88.401 66.3834H88.559L88.717 66.1461L89.033 66.0275H89.744L90.0205 66.1857L90.3365 66.7392H90.4945L91.087 66.9764Z" fill="#EAEAEA" stroke="white" stroke-width="2" stroke-linecap="round" stroke-linejoin="round"/>
<path d="M78.7235 124.503L78.763 124.899L78.6445 125.571L77.973 126.362L77.1435 128.18L76.1955 129.604L74.1415 129.841L73.5095 130.078L73.1935 130.474L73.391 131.462L74.4575 132.332L75.9585 133.123L76.63 133.281L77.183 133.557L77.4595 134.585L77.973 135.376L79.7505 133.557L80.659 133.162L81.133 133.044L81.528 133.637L81.7255 134.665L81.528 136.286L81.5675 137.432L80.9355 137.946L78.6445 137.472L76.63 137.63L75.8795 138.776L75.524 139.449L74.102 139.251L73.5095 139.449L73.154 139.686L73.075 140.239L73.2725 141.584L73.154 142.967L72.1665 143.481L70.705 143.56L69.52 144.154L69.4015 144.509L69.441 144.747L69.7175 145.023L69.7965 145.261L69.836 145.537L69.7965 145.972V146.249L69.8755 146.447L69.599 146.921L69.2435 147.158L68.888 147.079L68.2165 147L64.938 147.751V148.542L65.491 149.372L65.807 150.005L65.491 151.587L65.096 152.417L61.8965 152.259L58.4205 153.168L56.011 152.97L50.876 151.31L49.375 150.005L48.032 149.175L46.373 148.779L44.714 148.661L41.6725 147.396L38.5125 147.791L37.288 147.751L36.9325 148.226L37.209 149.135L36.972 150.717L36.2215 153.208L35.787 156.766L35.313 157.122L35.234 156.964L34.286 156.252L33.97 155.936L33.6935 155.54L33.496 155.145L33.338 154.71L33.259 154.196L33.101 153.801L32.8245 153.524L32.5085 153.247L32.232 152.931L30.415 149.61L30.2965 149.57L29.704 149.649L29.151 149.61L28.7165 149.333L28.282 148.74L28.7165 148.542L29.072 148.226L29.388 147.554L29.5855 146.921L29.783 146.368L30.2965 145.933L30.6125 145.616L31.442 144.944L31.6395 144.668V144.391L31.363 143.956L31.284 143.679L31.3235 143.442L31.6 142.967L31.679 142.77L31.9555 141.584L31.995 140.951L31.916 140.397L31.6 139.923L31.1655 139.646H30.6915L30.2965 139.963L29.9015 139.686L29.6645 139.172L29.0325 137.116L29.23 136.8L30.2965 136.562L30.573 136.246L30.81 135.89V135.139L30.652 134.151L30.731 133.439L31.521 133.676L32.232 134.071L32.864 134.23L34.286 134.309L34.7205 134.506L34.839 134.467L34.9575 134.032L34.997 133.755L34.918 133.597L34.681 133.281L34.6415 132.885L34.602 132.411L34.5625 131.936L34.2465 131.502L34.128 131.027L33.97 130.829L33.6145 130.592L33.338 130.236L33.496 129.841L34.049 129.208L34.128 128.892L34.049 128.418L34.128 128.101L34.3255 127.825L34.602 127.706L35.155 127.666L35.7475 127.271L35.8265 126.638L35.787 126.006L35.945 125.531H36.419L37.0115 125.848L37.5645 126.045L37.8805 125.61L38.0385 125.017L38.1965 124.543L38.2755 124.068L38.078 123.436L37.999 123.08V122.764L38.1175 122.487L38.315 122.25L38.7495 122.171L38.9075 122.013L38.868 121.578L39.1445 121.103L39.3025 121.064L39.6185 121.143L40.053 121.419L40.2505 121.538L40.527 121.499L41.1195 121.775L41.4355 121.696L41.7515 121.419L42.3045 121.064H42.502L42.8575 121.143L43.371 120.985L43.6475 120.906L43.845 120.787L44.003 120.51L43.608 119.996L43.8845 119.284L44.319 118.533L44.398 117.901L44.082 117.624H43.292L43.0155 117.426L42.9365 117.031L43.134 116.715L43.371 116.398L43.4895 116.161L44.0425 116.359L47.953 119.403L52.851 126.164L53.72 126.757L54.194 126.718L54.273 127.231L54.115 127.983V128.971L54.826 129.722L56.0505 129.564L57.8675 129.801L59.25 129.604L60.04 129.169L60.119 128.339L60.5535 127.825L61.1855 127.706L61.62 127.192L61.6595 126.48L61.8965 125.927L62.7655 125.65L63.99 124.345L65.254 124.227L66.044 124.306L66.4785 124.068L66.597 122.447L66.7945 121.933L69.7175 121.736L70.4285 121.103L70.5075 120.273L70.152 119.522L70.3495 119.047L70.942 119.087L71.7715 119.798L74.102 120.866L77.2225 124.385L78.0915 124.543L78.7235 124.503Z" fill="#EAEAEA" stroke="white" stroke-width="2" stroke-linecap="round" stroke-linejoin="round"/>
<path d="M134.379 72.9861L134.182 73.7373L133.471 74.7257L132.404 75.2793L131.575 76.1095L131.14 78.205L129.876 80.4587L128.849 81.1308L126.045 80.8936L124.346 81.2494L123.912 81.4866L123.477 81.6448L119.646 83.7403L118.619 83.8984L116.762 83.5426L116.328 83.2263L115.696 83.1077L114.629 83.1472L111.825 82.3169L110.6 81.1308L109.455 79.6679L109.178 78.8772L109.139 78.4422L107.203 77.4934L106.018 73.3024L105.149 71.879L102.858 69.5068L99.777 67.5299L99.5795 66.8973L99.382 65.553L99.5005 64.4065L99.461 63.6948L98.7895 62.825L97.486 61.797L96.3405 60.6109L92.983 55.2733L91.087 50.0544L91.1265 48.631L91.798 47.603L91.956 46.2192L92.3905 45.2308L97.012 39.7351L97.17 39.2606L96.854 38.9048L96.1035 38.7467L95.59 38.549L95.4715 38.035L95.0765 37.4815L94.405 36.9279L94.2865 36.6512L95.2345 36.7302L95.7085 36.5721L96.2615 36.3349L96.775 36.0186L97.2095 35.6232L97.644 35.3464L98.3155 35.386L99.619 35.6627L99.698 37.9559L99.461 38.7071L99.5795 39.2606L99.619 40.6445L100.014 41.5933L100.291 44.7959L101.16 47.8007L101.002 48.3147L100.962 48.9078L101.041 49.4613L101.199 49.8567L101.95 51.0428V51.28L101.831 51.7149L102.068 52.7429L102.503 53.6918L103.53 55.2733L104.912 56.6967L106.373 57.7642L109.692 59.5038L111.232 60.0178L119.053 61.0853L119.922 60.9272L120.594 60.6504L121.265 60.5318L121.976 60.9272L121.779 60.9667L121.463 60.8481L121.305 61.0853L123.003 61.7574L125.65 62.3505L126.598 62.7459L127.269 63.3389L127.19 64.2878L127.348 64.6437L127.625 65.553L127.822 65.9484L128.099 66.3833L128.573 67.7671L129.205 68.7951L129.916 69.4672L131.377 70.6138L132.404 71.8395L132.72 71.9977L133.115 72.1163L134.379 72.9861Z" fill="#EAEAEA" stroke="white" stroke-width="2" stroke-linecap="round" stroke-linejoin="round"/>
<path d="M86.3865 106L83.3845 104.339L82.634 104.537L82.9895 105.565L83.6215 106.316L83.8585 106.87V107.502L82.397 108.016L81.8045 108.57L81.133 108.886L80.501 108.688L79.553 106.672L79.079 106.751L78.0125 107.937L77.6965 108.57L79.1185 110.705L81.291 115.607L82.318 116.833L83.1475 117.387L84.293 118.533L84.8855 120.866L84.451 122.724L83.74 123.871L83.0685 124.464L82.634 124.227L81.9625 122.606L81.5675 122.685L81.37 123.396L80.6195 123.792L79.3555 124.187L78.7235 124.503L78.0915 124.543L77.2225 124.385L74.102 120.866L71.7715 119.798L70.942 119.087L70.3495 119.047L70.152 119.522L70.5075 120.273L70.4285 121.103L69.7175 121.736L66.7945 121.933L66.597 122.447L66.4785 124.068L66.044 124.306L65.254 124.227L63.99 124.345L62.7655 125.65L61.8965 125.927L61.6595 126.48L61.62 127.192L61.1855 127.706L60.5535 127.825L60.119 128.339L60.04 129.169L59.25 129.604L57.8675 129.801L56.0505 129.564L54.826 129.722L54.115 128.971V127.983L54.273 127.231L54.194 126.717L53.72 126.757L52.851 126.164L47.953 119.403L44.0425 116.359L43.4895 116.161L43.529 116.042L43.371 115.331L42.897 114.738L41.7515 113.749L40.448 111.654L40.211 110.902L40.2505 110.468L40.527 110.191L40.606 109.993L40.29 109.281L40.0925 108.807L40.29 108.767L40.922 108.965L40.9615 108.609L40.764 107.621V107.226L40.843 106.791L41.001 106.395L41.2775 106.079L41.6725 105.96L43.134 106L43.529 105.881L44.556 105.367L45.346 105.407L45.7805 105.328L46.0965 105.051L46.373 104.616L47.005 104.221L47.321 103.944L47.558 103.509L47.5975 103.114L47.4395 102.797L47.1235 102.56L46.689 102.521L46.294 102.679L45.978 102.916L45.583 103.074L44.714 103.272H44.2795L43.845 103.114L43.5685 102.837L43.4895 102.639L43.371 102.125L42.502 101.769H42.1465L41.8305 101.888L41.4355 102.125L41.0405 102.244L39.737 102.204L39.0655 102.441L38.4335 102.323L37.9595 102.758L37.5645 102.955L37.13 102.995L36.814 102.758L36.577 102.718L35.8265 102.955L35.4315 102.837L35.1945 102.521L34.681 101.216L33.733 99.8715L33.101 99.2785L32.548 99.1994L32.311 99.0017L31.521 98.3296L30.7705 98.0133L31.442 97.5784L32.2715 96.7876L32.5875 95.9573L33.733 94.6921L34.0095 93.4269L34.444 92.992L34.681 92.5571L35.313 91.885L38.631 90.8175L39.6185 89.315L39.658 88.0894L40.0925 87.4963L41.87 86.8242L47.005 87.5359L57.591 86.5474L57.828 86.7451L57.986 87.0614L58.2625 87.4568L58.6575 87.8126L59.013 88.1685L59.803 88.722L61.936 89.315L64.227 89.5127L65.7675 88.8406L66.6365 87.8522L66.992 87.1405L67.1105 86.7451L66.9525 86.3102L67.0315 85.8358L67.624 85.4404L68.1375 85.2822L68.73 85.8753L79 87.9312L79.079 88.0498L79.7505 88.7615L79.869 89.0383L79.948 89.5523L80.1455 90.1058L80.3825 90.5802L80.58 90.8965L80.343 91.0942L80.3035 91.2919L80.4615 91.9245L80.422 92.0827L80.264 92.4385L80.3035 92.5967L80.738 92.6757L81.133 94.0991L81.0935 96.7086L80.659 98.5273L79.869 99.3971L79.5135 100.306L79.79 100.979L85.4385 104.418L85.794 104.735L86.189 105.446L86.3865 106Z" fill="#EAEAEA" stroke="white" stroke-width="2" stroke-linecap="round" stroke-linejoin="round"/>
<path d="M336.777 146.091L337.014 148.265L337.607 152.022L337.567 152.97L336.935 154.394L336.777 155.224L337.251 157.003L338.554 158.268L340.214 158.941L341.793 159.059L343.294 158.98L344.084 159.02L344.796 159.217L345.112 159.375L345.428 159.692L345.625 160.048L345.428 160.364L345.151 160.483L344.163 160.562L343.808 160.799L343.769 161.155L343.848 161.985L343.729 162.459L343.532 162.736L342.86 163.171L342.268 163.685L340.49 166.097L338.397 168.944L338.278 169.299L338.318 171.197L338.594 172.779L340.608 179.54L342.188 184.917L343.769 190.887L343.729 192.824L343.453 194.761L343.334 195.157L342.781 195.869L342.623 196.224L342.702 196.383L343.018 196.62L342.821 197.134L342.86 197.371L343.058 197.885L343.097 198.399L342.939 199.901L342.979 201.048L343.255 203.302L343.018 205.081L343.058 205.634L343.374 206.781L343.611 209.035L344.282 209.311L349.812 210.142L350.168 211.525L349.891 214.412L348.588 217.575L347.6 221.054L347.166 227.301L347.244 229.12L348.311 233.706L348.272 234.457L347.956 234.932L347.244 235.208L344.479 235.327L342.821 233.864L339.582 229.278L337.093 227.419L335.197 226.905L334.723 226.55L334.012 225.759L332.867 225.561L317.58 229.91L316.908 230.227L308.772 218.326L305.848 216.151L282.583 205.595L282.899 205.12L283.966 202.392L286.059 199.111L286.809 197.015L289.535 193.338L289.851 192.231L290.048 191.045L290.522 189.701L290.562 188.356L289.732 187.012L289.101 185.668V184.917L288.468 184.245L288.192 183.691L288.034 183.137L288.389 182.268L288.942 181.358L289.101 180.607L288.982 178.749L289.496 178.156L290.364 176.653L291.036 173.767L293.88 169.458L300.318 165.187L301.227 164.239L302.214 162.618L302.372 161.906L302.965 160.759L299.884 158.506L299.687 157.794L299.489 157.201L299.015 156.885L298.422 156.331L298.343 155.264L298.659 153.88L299.173 152.615L299.252 151.626L299.015 150.559L299.449 148.74L299.647 147.079L298.857 145.814L298.738 145.142L299.054 144.43L300.121 144.035L303.399 144.43L305.493 145.102L306.046 144.668L306.638 144.035L312.682 143.126L314.578 142.019L316.711 141.228L317.817 142.177L319.792 145.458L322.478 146.407L335.197 146.368L336.777 146.091Z" fill="#EAEAEA" stroke="white" stroke-width="2" stroke-linecap="round" stroke-linejoin="round"/>
<path d="M336.777 146.091L335.197 146.368L322.478 146.407L319.792 145.458L317.817 142.177L316.711 141.228L314.578 142.018L312.682 143.126L306.638 144.035L306.046 144.667L305.493 145.102L303.399 144.43L300.121 144.035L299.054 144.43L298.738 145.142L298.857 145.814L299.647 147.079L299.449 148.74L299.015 150.559L299.252 151.626L299.173 152.615L298.659 153.88L298.343 155.264L298.423 156.331L299.015 156.885L299.489 157.201L299.687 157.794L299.884 158.506L302.965 160.759L302.373 161.906L302.214 162.617L301.227 164.239L300.318 165.187L293.88 169.457L291.036 173.767L290.364 176.653L289.496 178.156L288.982 178.749L288.468 178.353L286.809 175.783L285.072 174.676L283.768 174.083L283.254 173.688L281.517 172.7L280.213 169.655L278.673 159.336L277.883 157.754L276.974 156.647L271.76 157.873L267.731 157.359L266.743 155.857L265.479 148.74L265.638 144.588L268.244 136.8L269.627 134.309L277.724 128.536L279.699 126.599L279.976 125.017L279.265 123.436L273.301 118.85L271.049 118.256L265.914 119.601L257.777 123.436L249.443 125.65L252.721 121.578L255.368 119.126L257.658 117.742L262.003 116.121L262.596 115.647L263.465 113.631L267.02 107.502L267.336 105.723L265.993 104.181L261.174 100.227L260.582 98.8041L259.949 95.7597L259.554 90.9756L259.871 88.208L260.7 86.6265L261.213 84.2543L260.739 82.2774L259.91 81.7634L259.238 81.7239L258.843 81.8425L258.923 81.1704L258.764 80.261L258.923 79.0749L260.108 77.5329L265.006 73.5001L268.284 73.6582L281.793 81.2099L287.442 82.0797L288.982 81.6843L289.772 80.9727L290.443 78.9563L290.286 78.1655L289.535 77.7306L289.298 77.3352L289.417 76.6235L290.641 75.3188L290.562 74.7257L289.891 74.4094L289.456 73.7769L289.298 73.1047L289.022 73.2233L288.745 74.0141L288.192 74.0931L287.797 73.3815L287.244 72.7489L286.257 72.0372L286.138 71.1674L286.968 70.1394L288.192 66.502L288.943 65.474L289.14 64.6832L289.179 64.1692L289.338 63.7343L289.891 63.0622L290.325 62.2319L290.207 61.2039L289.653 60.0574L287.797 58.3177L287.323 57.2502L287.086 56.3804L286.691 55.8664L277.527 55.4315L276.737 54.8779L277.093 54.0081L277.329 53.0197V51.9126L278.08 51.1219L280.568 49.5799L280.963 49.5009L281.122 49.5404L281.279 49.6985L281.477 50.0939L281.596 50.2521L281.912 50.3707H282.228L282.583 50.2521H282.899L283.61 50.4498L286.809 51.9917L288.153 52.308L288.863 52.3475L289.179 52.4266L289.535 52.5848L289.693 52.7825L289.653 53.336L289.969 53.9686L290.048 54.1267L290.088 54.6012V54.957L290.207 55.2733L290.562 55.5501L290.878 55.7082L292.498 55.9455L292.734 56.0641L293.288 56.4199L293.564 56.499L295.421 56.3408L295.776 56.1431L296.053 55.7478L296.25 55.3129L296.487 54.9175L296.803 54.7198L297.198 54.6803L297.514 54.8384L298.541 55.7478L299.449 56.1431L299.884 56.1827L300.358 56.1431L300.516 56.0245L300.793 55.7478H301.029L301.464 55.8664L301.898 55.7478L302.175 55.4315L302.214 55.0361L302.333 54.8384L303.558 55.5501L305.138 55.9059L305.967 56.2618L306.243 56.499L306.52 56.5781L307.113 56.6571L307.31 56.7757L307.982 57.4874L310.707 59.4643L311.142 59.5038L312.287 58.9898L312.761 59.1085L313.196 59.5038L313.591 60.0178L313.669 60.3737L313.591 60.9667L313.788 61.4412L313.591 61.9156L313.512 62.2319L313.551 62.7459L313.946 64.5251L314.183 64.8809L315.487 65.9484L316 66.5415L315.842 66.8183L315.763 67.2136L315.842 67.4113L316.158 67.4904L316.474 67.7672L316.79 67.8462L317.462 67.609L317.738 67.6485L318.093 68.0044L318.252 68.4393L318.331 68.9137L318.488 69.3487L318.765 69.5463L318.963 69.5068L319.081 69.3487L319.318 68.9928L319.516 68.8742H319.753L322.676 69.8626L324.018 70.9697L324.769 71.4441L326.428 71.7209L327.218 72.0767L327.811 72.8675L328.601 74.5281L329.509 75.9514L331.682 78.6004L332.116 79.3121L332.708 80.8936L333.143 81.6053L333.814 82.0006L344.282 81.8029L348.785 81.7239L349.812 81.9216L350.642 82.0006L350.799 82.8705L351.037 83.5031L351.076 83.8194L351.037 84.1357L350.957 84.4124L350.721 84.8473L350.642 85.1241L350.681 85.4404L350.799 85.8358L350.365 87.8522L350.247 89.1174L350.523 89.8291L350.365 90.1849L350.721 90.4221L350.957 90.6989L351.076 91.2524V91.8455L351.155 92.0827L351.432 92.5571L351.747 94.1386L351.787 94.8898V95.2061L351.471 95.6411L351.392 95.8783L351.353 96.3527L351.273 96.6295L350.918 96.8272L350.799 96.9458L350.721 97.2621L350.799 97.7761V98.0133L350.523 98.2505L350.128 98.6064L349.891 98.9227L350.168 99.0413L350.681 99.1203L351.076 99.3576L351.432 99.6739L351.747 100.069L351.984 100.425L352.143 100.86L352.301 101.295L352.379 102.204L352.458 102.56V102.995L352.34 103.549L352.458 103.746V103.983L352.34 104.577V105.17L352.261 105.328L351.984 105.604L351.906 105.763L351.984 106.435L352.261 107.028L352.893 108.016L353.091 109.044L353.169 109.558L353.051 110.072L352.774 110.547L352.301 111.14L352.063 111.614L351.866 112.405L351.747 112.682L351.353 113.235L351.234 113.512L351.116 114.026L351.234 115.331L351.076 115.766L350.681 116.003L350.168 116.082H349.733L349.457 116.319L349.338 116.873V117.663L349.457 117.742L349.536 117.98V118.256L349.219 118.454L349.298 118.691L350.049 119.68L350.088 119.798L350.009 120.312L350.049 120.51L350.247 120.747L349.733 121.419L349.614 121.775L349.496 122.843L349.18 123.752L349.062 124.503L348.746 124.938L348.706 125.255L348.824 126.204L348.746 127.073L348.588 127.904L347.956 128.101L347.837 128.536L347.442 129.248L346.771 129.762L346.415 130.197L346.376 130.79L346.454 131.422L346.376 132.016L346.178 132.292L345.941 132.371L345.664 132.332L345.388 132.371L345.112 132.53L344.874 132.925L343.927 133.992L343.532 134.23L343.018 134.388L341.912 134.546L341.398 134.823L341.122 135.337L341.319 135.376L341.517 135.455L341.636 135.613L341.793 136.206L341.991 136.404L342.504 136.641L342.742 136.839L342.939 137.155L343.255 137.788L344.756 139.765L344.993 140.239L339.977 140.516L340.095 141.07L339.779 141.386L338.831 141.939L338.081 142.651L337.448 143.521L336.896 144.667L336.738 145.775L336.777 146.091Z" fill="#EAEAEA" stroke="white" stroke-width="2" stroke-linecap="round" stroke-linejoin="round"/>
<path d="M280.568 49.5799L278.08 51.1219L277.329 51.9127V53.0197L277.092 54.0081L276.737 54.878L277.527 55.4315L286.691 55.8664L287.086 56.3804L287.323 57.2502L287.797 58.3177L289.653 60.0574L290.206 61.204L290.325 62.2319L289.89 63.0622L289.337 63.7343L289.179 64.1693L289.14 64.6833L288.942 65.474L288.192 66.502L286.967 70.1394L286.138 71.1674L286.256 72.0372L287.244 72.7489L287.797 73.3815L288.192 74.0932L288.745 74.0141L289.021 73.2233L289.298 73.1047L289.456 73.7769L289.89 74.4095L290.562 74.7258L290.641 75.3188L289.416 76.6236L289.298 77.3352L289.535 77.7306L290.285 78.1655L290.443 78.9563L289.772 80.9727L288.982 81.6844L287.441 82.0797L281.793 81.2099L268.284 73.6582L265.005 73.5001L260.107 77.5329L258.922 79.0749L258.764 80.261L258.922 81.1704L258.843 81.8425L255.723 82.396L254.735 82.0006L252.76 81.6448L251.615 81.289L249.324 79.2726L246.875 76.5445L246.519 75.7537L246.598 75.2397L246.954 73.6978L247.072 71.9581L246.954 71.286L246.717 70.8116L246.835 70.4162L247.349 70.0208L248.534 69.665L248.771 69.0719L247.783 68.637L246.954 68.7951L245.532 67.7672L242.411 63.6157L243.043 63.0227L244.544 60.3737L246.006 59.7411L246.638 59.1875L247.27 58.9108L247.823 58.8317L250.193 58.0014L251.338 56.4199L250.943 54.8384L250.114 54.2058L249.166 53.7314L248.455 52.9011L248.415 51.715L248.81 50.0544L248.85 49.4218L248.613 48.3543L248.534 47.4054L248.692 46.6542L248.534 44.8355L249.166 45.1122L249.521 45.1518L251.259 44.875L251.575 44.6378L251.773 44.2029L251.852 43.7284L251.773 43.2935L251.22 42.6214L251.338 42.2655L252.602 41.0794L253.313 40.6049L254.064 40.3282L255.92 40.2491L256.276 40.3282L256.829 40.7236L257.105 40.8422L257.421 40.8026L259.041 40.0514L260.028 39.8933L260.226 39.9328L261.016 40.6049L261.727 41.0003L262.043 41.0794L265.124 41.6725L265.914 42.0283L266.348 42.0678L266.704 41.8701L266.98 41.6329L267.652 41.1585L267.889 40.9212L268.323 40.2096L268.56 39.9328L268.916 39.7747H269.35L269.785 39.8933L270.022 40.0514L270.061 40.4073L270.18 40.6445L270.654 41.4352L271.009 42.3446L271.246 42.7004L271.918 43.4516L272.155 44.2029L272.589 44.8355L272.708 45.3099L272.629 45.7448L272.234 47.0891L272.747 47.8008L275.67 48.9473L276.026 48.9078L276.342 48.8287L276.658 48.7497L277.013 48.7892L278.04 49.1055H279.067L279.344 49.0264H279.66L279.936 49.1846L280.213 49.4218L280.568 49.5799Z" fill="#EAEAEA" stroke="white" stroke-width="2" stroke-linecap="round" stroke-linejoin="round"/>
<path d="M282.583 205.595L305.848 216.151L308.771 218.326L316.908 230.227L312.721 249.758L312.563 251.735L313.037 252.209L313.946 252.842L314.775 254.898L315.486 259.88L315.407 261.896L314.775 264.229L313.077 266.838L312.8 268.341L313.077 269.922L313.116 271.82L313.709 273.085L313.906 273.995L313.867 274.864L313.274 275.497L312.366 276.248L307.626 279.016L305.295 279.807L304.11 280.439L304.861 281.625L306.559 282.891L307.27 284.077L306.638 286.172L304.268 289.256L304.426 297.282L304.15 299.931L301.819 309.143V311.437L302.293 313.374L302.372 314.244L302.293 315.707L302.728 317.249L304.268 319.067L305.374 321.242L304.782 322.981L304.229 323.97L304.545 324.484L305.216 325.077V325.868L304.545 326.658L304.071 327.726L304.426 329.031L305.137 329.861L305.295 330.77L304.979 331.64L304.584 332.115L304.624 332.866L304.347 333.222L304.11 333.815V335.199L303.992 336.068L303.597 337.057L302.767 335.792L302.491 335.554H301.898L301.108 335.238L300.516 335.396L299.923 336.029L299.054 336.147L298.027 336.108L297.198 335.91L296.842 335.278L296.803 334.566L296.566 334.091L296.526 333.617L296.724 333.222L296.763 332.984L296.368 332.708L295.104 332.51L294.314 332.154L293.603 331.996L292.892 332.352L291.786 332.431L290.127 332.154L287.402 332.312L287.362 331.877L287.797 331.363L288.034 330.098V329.426L287.915 328.754L288.389 324.286L288.666 323.614L289.021 323.14L289.14 322.744V322.191L288.626 320.688L288.666 320.253H289.1L290.364 321.044L290.562 320.609L289.969 319.344L288.745 317.96L287.244 316.655L285.822 315.825L284.479 315.786L283.649 316.339L283.175 317.051L282.188 317.96L281.595 317.763L280.213 316.735L273.893 313.374L273.458 312.03L272.826 303.45L272.194 301.631L271.641 300.485L271.128 300.208L270.654 299.536L271.009 298.824L271.562 298.35L271.444 297.203L270.496 295.78L269.587 294.752L269.113 293.842L268.284 292.775L267.217 292.221L266.585 292.142L266.19 291.786L265.914 291.272L265.163 287.675L265.321 285.302L265.163 284.946L263.03 283.879L261.924 283.839L261.016 284.591L260.384 285.342L258.172 287.477L255.762 288.663L254.459 288.9L252.01 288.505L249.916 287.24L248.178 285.619L246.361 283.286L245.927 280.993L246.44 279.253L246.045 270.397L245.453 269.527L244.86 269.606L242.451 270.753L238.343 273.836L237.316 274.113L236.407 273.678L235.499 273.046L234.63 271.86L232.773 270.436L229.1 269.369L227.362 269.25L223.254 258.97L222.029 258.456L217.368 258.021L216.46 257.468L215.986 256.954L215.512 256.163L215.275 255.254L213.616 251.814L213.063 249.956V249.481L213.971 249.086L214.169 248.888L216.262 248.651L216.894 248.177L216.855 247.504L216.578 246.595L216.381 245.251L216.618 237.581L215.986 237.106L215.314 236.315L214.84 233.943L213.616 230.78L212.47 228.606L212.431 227.419L212.865 225.68L213.813 223.901L215.63 221.884L227.085 219.828L229.692 219.947L231.391 220.263L235.222 219.749L238.698 218.207L239.014 216.547L239.251 209.035L240.16 207.058L251.022 201.325L252.444 199.783L256.71 197.371L257.658 196.383L258.093 195.71L260.7 196.145L282.583 205.595Z" fill="#EAEAEA" stroke="white" stroke-width="2" stroke-linecap="round" stroke-linejoin="round"/>
<path d="M138.961 90.1058L142.358 90.7779L143.662 91.2919L144.017 91.8059L144.807 92.5571L145.637 92.9129L148.994 93.6641L150.337 95.2061L150.258 96.3132V97.7365L149.113 98.4482L147.454 98.2505L145.795 98.8436L144.57 100.267L144.491 101.888L144.254 103.114L142.437 103.232L141.845 104.735L140.778 106.079L139.475 106.87L138.922 108.135L137.974 108.214L137.421 109.4L136.828 109.479L136.71 108.649V107.265L135.92 106.316H134.774L134.498 106.988L135.288 108.095V108.53L135.09 108.886L134.577 108.57L133.392 107.502L131.377 106.949L129.323 106.791L128.454 106.593L128.02 105.881L127.467 104.695L127.309 103.944L127.585 102.955L128.691 101.848L132.839 99.832L133.51 99.1599L133.787 98.211L134.735 96.1945L135.406 93.9804L134.458 93.1897L132.997 92.7548L132.246 92.0827L131.219 90.6593L131.812 89.7499L134.103 89.5918L138.961 90.1058Z" fill="#EAEAEA" stroke="white" stroke-width="2" stroke-linecap="round" stroke-linejoin="round"/>
</g>
</mask>
<g mask="url(#mask0_1_657)">
<rect x="-10" y="-9" width="407" height="378" fill="url(#paint0_linear_1_657)"/>
</g>
</g>
<defs>
<linearGradient id="paint0_linear_1_657" x1="193.5" y1="-9" x2="193.5" y2="201" gradientUnits="userSpaceOnUse">
<stop stop-color="#D9D9D9"/>
<stop offset="1" stop-color="#D9D9D9" stop-opacity="0"/>
</linearGradient>
<clipPath id="clip0_1_657">
<rect width="395" height="196" fill="white"/>
</clipPath>
<clipPath id="clip1_1_657">
<rect width="395" height="359" fill="white"/>
</clipPath>
</defs>
</svg>
