<svg width="35" height="38" viewBox="0 0 35 38" fill="none" xmlns="http://www.w3.org/2000/svg">
<g filter="url(#filter0_ii_1_1306)">
<path d="M13.9872 0.893164C16.0499 -0.297721 18.5912 -0.297721 20.6538 0.893164L31.3077 7.04416C33.3704 8.23505 34.641 10.4359 34.641 12.8177V25.1197C34.641 27.5014 33.3704 29.7023 31.3077 30.8932L20.6538 37.0442C18.5912 38.235 16.0499 38.235 13.9872 37.0442L3.33333 30.8932C1.27066 29.7023 0 27.5014 0 25.1197V12.8177C0 10.4359 1.27066 8.23505 3.33333 7.04416L13.9872 0.893164Z" fill="#272B30"/>
</g>
<mask id="mask0_1_1306" style="mask-type:alpha" maskUnits="userSpaceOnUse" x="8" y="11" width="19" height="14">
<path d="M11.8519 24.1816L8.69493 20.9094C8.31387 20.5144 8.33281 19.8832 8.73686 19.5117L16.9263 11.9835C17.3028 11.6374 17.8826 11.6402 18.2558 11.9901L26.2922 19.5255C26.6839 19.8927 26.7059 20.5072 26.3413 20.9015L23.3354 24.1527C22.9695 24.5484 22.3523 24.5731 21.956 24.2079L18.2561 20.7991C17.882 20.4544 17.3061 20.4544 16.932 20.7991L13.2171 24.2218C12.8267 24.5815 12.2205 24.5637 11.8519 24.1816Z" fill="white"/>
</mask>
<g mask="url(#mask0_1_1306)">
<path d="M11.8519 24.1816L8.69493 20.9094C8.31387 20.5144 8.33281 19.8832 8.73686 19.5117L16.9263 11.9835C17.3028 11.6374 17.8826 11.6402 18.2558 11.9901L26.2922 19.5255C26.6839 19.8927 26.7059 20.5072 26.3413 20.9015L23.3354 24.1527C22.9695 24.5484 22.3523 24.5731 21.956 24.2079L18.2561 20.7991C17.882 20.4544 17.3061 20.4544 16.932 20.7991L13.2171 24.2218C12.8267 24.5815 12.2205 24.5637 11.8519 24.1816Z" fill="white"/>
<path d="M17.5949 20.7291V11.3696L26.293 19.5255C26.6847 19.8927 26.7067 20.5072 26.3421 20.9015L23.2972 24.1948C22.947 24.5737 22.3625 24.6149 21.9626 24.2889L17.5949 20.7291Z" fill="url(#paint0_linear_1_1306)"/>
</g>
<defs>
<filter id="filter0_ii_1_1306" x="0" y="-0.833333" width="34.641" height="39.6039" filterUnits="userSpaceOnUse" color-interpolation-filters="sRGB">
<feFlood flood-opacity="0" result="BackgroundImageFix"/>
<feBlend mode="normal" in="SourceGraphic" in2="BackgroundImageFix" result="shape"/>
<feColorMatrix in="SourceAlpha" type="matrix" values="0 0 0 0 0 0 0 0 0 0 0 0 0 0 0 0 0 0 127 0" result="hardAlpha"/>
<feOffset dy="-0.833333"/>
<feGaussianBlur stdDeviation="0.833333"/>
<feComposite in2="hardAlpha" operator="arithmetic" k2="-1" k3="1"/>
<feColorMatrix type="matrix" values="0 0 0 0 0 0 0 0 0 0 0 0 0 0 0 0 0 0 0.53 0"/>
<feBlend mode="multiply" in2="shape" result="effect1_innerShadow_1_1306"/>
<feColorMatrix in="SourceAlpha" type="matrix" values="0 0 0 0 0 0 0 0 0 0 0 0 0 0 0 0 0 0 127 0" result="hardAlpha"/>
<feOffset dy="0.833333"/>
<feGaussianBlur stdDeviation="0.416667"/>
<feComposite in2="hardAlpha" operator="arithmetic" k2="-1" k3="1"/>
<feColorMatrix type="matrix" values="0 0 0 0 0.838444 0 0 0 0 0.838444 0 0 0 0 0.838444 0 0 0 0.25 0"/>
<feBlend mode="normal" in2="effect1_innerShadow_1_1306" result="effect2_innerShadow_1_1306"/>
</filter>
<linearGradient id="paint0_linear_1_1306" x1="22.2978" y1="11.3696" x2="22.2978" y2="24.8688" gradientUnits="userSpaceOnUse">
<stop stop-color="#EFEFEF"/>
<stop offset="1" stop-color="white"/>
</linearGradient>
</defs>
</svg>
